<svg viewBox="310 375 870 220" xmlns="http://www.w3.org/2000/svg" class="h-6 w-auto"><path d="M0 0 C15.35 11.96 24.18 28.66 26.83 47.83 C28.13 67.76 24.3 85.86 11.83 101.83 C11.07 102.86 11.07 102.86 10.29 103.91 C-0.71 117.71 -18.22 124.9 -35.17 127.83 C-39.78 128.24 -44.35 128.31 -48.98 128.27 C-50.21 128.26 -51.43 128.25 -52.7 128.24 C-71.87 127.88 -89.76 121.83 -104.17 108.83 C-104.77 108.33 -105.36 107.82 -105.98 107.3 C-116.66 97.6 -124.41 81.52 -125.34 67.1 C-125.81 44.69 -123.52 26.36 -108.17 8.83 C-107.64 8.22 -107.1 7.6 -106.55 6.97 C-79.89 -21.73 -30.67 -20.99 0 0 Z M-76.04 30.58 C-83.85 40.18 -85.05 51.88 -84.17 63.83 C-82 75.04 -77.54 83.02 -68.18 89.58 C-60.16 94.56 -51.28 96.17 -42.05 94.15 C-30.69 90.98 -24.59 86.66 -18.57 76.49 C-13.18 66.3 -13.16 53.78 -16.17 42.83 C-19.8 33.47 -24.96 26.23 -34.17 21.83 C-49.49 16.25 -64.53 18.43 -76.04 30.58 Z" fill="currentColor" transform="translate(1146.17,458.17)"></path><path d="M0 0 C8.14 6.12 14.96 13.57 19 23 C19 23.66 19 24.32 19 25 C14.81 27.34 10.61 29.65 6.4 31.95 C4.97 32.73 3.54 33.52 2.12 34.31 C0.07 35.46 -1.99 36.58 -4.05 37.7 C-4.68 38.06 -5.32 38.42 -5.97 38.79 C-10.43 41.17 -10.43 41.17 -13.35 40.31 C-15.25 38.8 -16.33 37.3 -17.63 35.25 C-21.91 29.3 -28.05 25.64 -35.06 23.63 C-45.26 22.01 -54.55 23.26 -63.66 28.54 C-72.23 34.79 -76.27 42.62 -78 53 C-79.09 64.46 -77.62 75.49 -70.75 85 C-64.05 92.75 -55.72 96.06 -45.65 97.29 C-36.07 97.67 -27.21 94.23 -20 88 C-17.46 85.13 -15.18 82.15 -13 79 C-8.61 80.34 -4.75 82.06 -0.73 84.26 C0.43 84.88 1.58 85.51 2.77 86.15 C3.97 86.81 5.17 87.47 6.38 88.13 C7.6 88.79 8.83 89.46 10.05 90.12 C13.04 91.74 16.02 93.37 19 95 C17.47 103.92 10.07 112.47 3 118 C-16.88 131.26 -40.79 134.44 -64.23 129.97 C-82.71 125.64 -99.22 114.94 -109.91 99.18 C-120.23 82.37 -123.01 61.99 -119.32 42.6 C-118.41 39.26 -117.35 36.18 -116 33 C-115.35 31.44 -115.35 31.44 -114.68 29.85 C-107.14 13.5 -93.7 0.74 -76.9 -5.82 C-51.68 -14.74 -23.12 -14.2 0 0 Z" fill="currentColor" transform="translate(941,455)"></path><rect x="968" y="446" width="40" height="138" fill="currentColor"></rect><path d="M0 0 C8.05 6.46 12.83 16.79 14.37 26.9 C14.51 30.09 14.5 33.28 14.48 36.47 C14.48 42.52 14.48 45.67 14.47 48.83 C14.47 61.16 14.45 66.92 14.44 72.67 C14.43 78.55 14.42 84.43 14.42 90.31 C14.41 101.84 14.39 113.37 14.37 124.9 C11.4 124.9 8.43 124.9 5.37 124.9 C4.88 114.51 4.88 114.51 4.37 103.9 C2.99 105.47 1.61 107.04 0.18 108.65 C-4.13 113.54 -8.41 117.5 -14.25 120.46 C-15.39 121.05 -15.39 121.05 -16.54 121.66 C-25.38 125.23 -33.57 126.38 -43.07 126.28 C-44.11 126.29 -45.15 126.3 -46.22 126.31 C-59.81 126.26 -71.87 122.77 -82.06 113.57 C-90.34 104.75 -91.19 95.09 -90.94 83.55 C-90.67 78.03 -89.6 73.61 -86.63 68.9 C-86.19 68.2 -85.75 67.5 -85.3 66.78 C-78.75 58.03 -67.15 53.45 -56.63 51.9 C-51.81 51.64 -47.01 51.67 -42.19 51.71 C-34.46 51.72 -30.87 51.74 -27.27 51.77 C-19.91 51.79 -19.91 51.79 -16.23 51.8 C-9.03 51.83 -1.83 51.86 5.37 51.9 C5.24 48.53 5.09 45.16 4.95 41.79 C4.36 28.18 2.49 17.14 -5.34 9.15 C-15.67 0.71 -28.74 -0.85 -41.63 -0.1 C-54.95 1.57 -67.64 5.48 -77.76 14.58 C-79.63 15.9 -79.63 15.9 -83.63 15.9 C-85.88 12.9 -85.88 12.9 -87.63 9.9 C-65.33 -10.87 -25.93 -17.8 0 0 Z M-75.16 69.26 C-80.92 75.71 -82.01 82.34 -81.9 90.74 C-81.22 98.72 -77.88 104.73 -72.05 110.14 C-59.82 119.04 -43.7 119.51 -29.22 117.41 C-16.7 114.22 -6.68 107.78 0.37 96.9 C0.8 96.33 1.22 95.75 1.66 95.16 C6.37 88.03 5.95 81.15 5.68 72.84 C5.56 65.48 5.47 62.19 5.37 58.9 C-1.47 58.85 -8.32 58.82 -15.17 58.79 C-17.49 58.78 -19.81 58.77 -22.14 58.75 C-50.47 57.51 -50.47 57.51 -75.16 69.26 Z" fill="currentColor" transform="translate(405.63,459.1)"></path><path d="M0 0 C1.04 -0.01 2.08 -0.02 3.16 -0.04 C21.35 0.03 35.49 7.18 48.68 19.32 C62.6 33.54 66.07 52.03 65.91 71.21 C65.5 89.29 59.7 105.83 46.61 118.68 C30.39 133.52 11.9 136.35 -9.36 135.6 C-25.95 134.4 -40.37 125.22 -51.14 112.96 C-63.81 97.49 -66.96 77.76 -65.44 58.38 C-63.43 42.42 -57.04 28.65 -45.44 17.38 C-44.82 16.74 -44.21 16.11 -43.58 15.45 C-31.85 4.13 -15.88 -0.18 0 0 Z M-40.25 24.92 C-51.53 37.59 -56.27 52.64 -56.44 69.38 C-55.27 87.24 -49.36 101.89 -36.44 114.38 C-25.37 124.01 -11.37 127.82 3.12 127.65 C17.62 126.49 31.49 121.15 41.56 110.38 C53.59 95.71 58.36 78.11 56.56 59.38 C54.16 42.06 46.06 28.09 32.09 17.5 C9.41 2.75 -21.03 6.36 -40.25 24.92 Z" fill="currentColor" transform="translate(748.44,449.63)"></path><path d="M0 0 C2.97 0 5.94 0 9 0 C9 1.06 9.01 2.12 9.02 3.22 C9.08 13.26 9.15 23.31 9.24 33.36 C9.28 38.52 9.32 43.68 9.35 48.85 C9.37 53.84 9.41 58.83 9.46 63.83 C9.48 65.72 9.49 67.62 9.5 69.51 C9.55 83.58 9.79 96.95 18 109 C18.38 109.61 18.77 110.23 19.16 110.86 C24.55 118.32 34.84 122.63 43.63 124.44 C60.51 126.66 76.08 123.8 89.75 113.31 C99.64 104.18 104.61 90.43 105.16 77.2 C105.18 75.76 105.19 74.32 105.21 72.88 C105.27 67.89 105.29 65.29 105.32 62.7 C105.34 60.89 105.36 59.08 105.38 57.27 C105.43 52.53 105.48 47.78 105.53 43.04 C105.58 38.19 105.64 33.35 105.69 28.5 C105.8 19 105.9 9.5 106 0 C108.97 0 111.94 0 115 0 C115 43.89 115 87.78 115 133 C112.03 133 109.06 133 106 133 C105.51 120.13 105.51 120.13 105 107 C103.02 109.97 101.04 112.94 99 116 C90.89 125.89 79.73 132.32 67 134 C62.79 134.31 58.6 134.41 54.38 134.44 C53.34 134.45 52.3 134.46 51.23 134.47 C37.03 134.31 23.26 130.26 13 120 C3.93 109.16 -0.17 96.94 -0.11 82.99 C-0.11 77.31 -0.11 74.35 -0.1 71.39 C-0.1 69.33 -0.09 67.28 -0.09 65.22 C-0.09 59.82 -0.08 54.41 -0.07 49.01 C-0.06 43.49 -0.05 37.98 -0.05 32.46 C-0.04 21.64 -0.02 10.82 0 0 Z" fill="currentColor" transform="translate(459,451)"></path><path d="M0 0 C2.97 0 5.94 0 9 0 C9 9.9 9 19.8 9 30 C23.52 30 38.04 30 53 30 C53 32.64 53 35.28 53 38 C38.48 38 23.96 38 9 38 C9.12 54.08 9.12 54.08 9.26 70.17 C9.32 76.73 9.38 83.3 9.42 89.86 C9.46 95.16 9.51 100.46 9.56 105.76 C9.58 107.77 9.59 109.78 9.6 111.8 C9 132.98 9 132.98 18.81 150.81 C25.61 155.48 32.97 155.83 41 155 C46.84 153.48 51.89 151.19 57 148 C60.96 152.32 60.96 152.32 61.13 155.06 C58.3 159.93 52.5 162.03 47.3 163.46 C35.09 165.46 22.21 165.69 11.77 158.46 C4.59 152.75 1.67 145.91 0 137 C-0.26 133.66 -0.25 130.35 -0.23 127 C-0.23 120.9 -0.21 117.73 -0.2 114.56 C-0.19 112.35 -0.19 110.15 -0.19 107.94 C-0.18 102.14 -0.16 96.35 -0.14 90.56 C-0.12 84.64 -0.11 78.72 -0.1 72.8 C-0.08 61.2 -0.04 49.6 0 38 C-8.25 38 -16.5 38 -25 38 C-25 35.36 -25 32.72 -25 30 C-16.75 30 -8.5 30 0 30 C0 20.1 0 10.2 0 0 Z" fill="currentColor" transform="translate(619,421)"></path><path d="M0 0 C4.82 3.83 7.62 7.77 8.43 14.04 C8.44 22.28 8.1 28.24 2.38 34.42 C-4.47 40.77 -12.03 41.3 -21.01 41.05 C-27.47 40.62 -32.45 38.38 -36.91 33.67 C-42.16 26.97 -42.75 21.06 -42 12.68 C-40.09 5.72 -35.33 1.15 -29.2 -2.36 C-20.05 -6.45 -8.33 -5.51 0 0 Z" fill="currentColor" transform="translate(1005,386.32)"></path></svg>
