<svg viewBox="310 375 870 220" xmlns="http://www.w3.org/2000/svg" class="h-6 w-auto"><path d="M1146.17 458.17c15.35 11.96 24.18 28.66 26.83 47.83 1.3 19.93-2.53 38.03-15 54-.76 1.03-.76 1.03-1.54 2.08-11 13.8-28.51 20.99-45.46 23.92-4.61.41-9.18.48-13.81.44l-3.72-.03c-19.17-.36-37.06-6.41-51.47-19.41-.6-.5-1.19-1.01-1.81-1.53-10.68-9.7-18.43-25.78-19.36-40.2-.47-22.41 1.82-40.74 17.17-58.27l1.62-1.86c26.66-28.7 75.88-27.96 106.55-6.97zm-76.04 30.58c-7.81 9.6-9.01 21.3-8.13 33.25 2.17 11.21 6.63 19.19 15.99 25.75 8.02 4.98 16.9 6.59 26.13 4.57 11.36-3.17 17.46-7.49 23.48-17.66 5.39-10.19 5.41-22.71 2.4-33.66-3.63-9.36-8.79-16.6-18-21-15.32-5.58-30.36-3.4-41.87 8.75zM941 455c8.14 6.12 14.96 13.57 19 23v2c-4.19 2.34-8.39 4.65-12.6 6.95-1.43.78-2.86 1.57-4.28 2.36-2.05 1.15-4.11 2.27-6.17 3.39-.63.36-1.27.72-1.92 1.09-4.46 2.38-4.46 2.38-7.38 1.52-1.9-1.51-2.98-3.01-4.28-5.06-4.28-5.95-10.42-9.61-17.43-11.62-10.2-1.62-19.49-.37-28.6 4.91-8.57 6.25-12.61 14.08-14.34 24.46-1.09 11.46.38 22.49 7.25 32 6.7 7.75 15.03 11.06 25.1 12.29 9.58.38 18.44-3.06 25.65-9.29 2.54-2.87 4.82-5.85 7-9 4.39 1.34 8.25 3.06 12.27 5.26 1.16.62 2.31 1.25 3.5 1.89 1.2.66 2.4 1.32 3.61 1.98 1.22.66 2.45 1.33 3.67 1.99 2.99 1.62 5.97 3.25 8.95 4.88-1.53 8.92-8.93 17.47-16 23-19.88 13.26-43.79 16.44-67.23 11.97-18.48-4.33-34.99-15.03-45.68-30.79-10.32-16.81-13.1-37.19-9.41-56.58A73.56 73.56 0 01825 488c.65-1.56.65-1.56 1.32-3.15 7.54-16.35 20.98-29.11 37.78-35.67 25.22-8.92 53.78-8.38 76.9 5.82zm27-9h40v138h-40zm-562.37 13.1c8.05 6.46 12.83 16.79 14.37 26.9.14 3.19.13 6.38.11 9.57 0 6.05 0 9.2-.01 12.36 0 12.33-.02 18.09-.03 23.84-.01 5.88-.02 11.76-.02 17.64-.01 11.53-.03 23.06-.05 34.59h-9c-.49-10.39-.49-10.39-1-21-1.38 1.57-2.76 3.14-4.19 4.75-4.31 4.89-8.59 8.85-14.43 11.81-1.14.59-1.14.59-2.29 1.2-8.84 3.57-17.03 4.72-26.53 4.62l-3.15.03c-13.59-.05-25.65-3.54-35.84-12.74-8.28-8.82-9.13-18.48-8.88-30.02.27-5.52 1.34-9.94 4.31-14.65.44-.7.88-1.4 1.33-2.12 6.55-8.75 18.15-13.33 28.67-14.88 4.82-.26 9.62-.23 14.44-.19 7.73.01 11.32.03 14.92.06l11.04.03c7.2.03 14.4.06 21.6.1-.13-3.37-.28-6.74-.42-10.11-.59-13.61-2.46-24.65-10.29-32.64-10.33-8.44-23.4-10-36.29-9.25-13.32 1.67-26.01 5.58-36.13 14.68C326 475 326 475 322 475c-2.25-3-2.25-3-4-6 22.3-20.77 61.7-27.7 87.63-9.9zm-75.16 69.26c-5.76 6.45-6.85 13.08-6.74 21.48.68 7.98 4.02 13.99 9.85 19.4 12.23 8.9 28.35 9.37 42.83 7.27 12.52-3.19 22.54-9.63 29.59-20.51.43-.57.85-1.15 1.29-1.74 4.71-7.13 4.29-14.01 4.02-22.32-.12-7.36-.21-10.65-.31-13.94-6.84-.05-13.69-.08-20.54-.11-2.32-.01-4.64-.02-6.97-.04-28.33-1.24-28.33-1.24-53.02 10.51zm417.97-78.73c1.04-.01 2.08-.02 3.16-.04 18.19.07 32.33 7.22 45.52 19.36 13.92 14.22 17.39 32.71 17.23 51.89-.41 18.08-6.21 34.62-19.3 47.47-16.22 14.84-34.71 17.67-55.97 16.92-16.59-1.2-31.01-10.38-41.78-22.64-12.67-15.47-15.82-35.2-14.3-54.58 2.01-15.96 8.4-29.73 20-41 .62-.64 1.23-1.27 1.86-1.93 11.73-11.32 27.7-15.63 43.58-15.45zm-40.25 24.92c-11.28 12.67-16.02 27.72-16.19 44.46 1.17 17.86 7.08 32.51 20 45 11.07 9.63 25.07 13.44 39.56 13.27 14.5-1.16 28.37-6.5 38.44-17.27 12.03-14.67 16.8-32.27 15-51-2.4-17.32-10.5-31.29-24.47-41.88-22.68-14.75-53.12-11.14-72.34 7.42zM459 451h9c0 1.06.01 2.12.02 3.22.06 10.04.13 20.09.22 30.14.04 5.16.08 10.32.11 15.49.02 4.99.06 9.98.11 14.98.02 1.89.03 3.79.04 5.68.05 14.07.29 27.44 8.5 39.49.38.61.77 1.23 1.16 1.86 5.39 7.46 15.68 11.77 24.47 13.58 16.88 2.22 32.45-.64 46.12-11.13 9.89-9.13 14.86-22.88 15.41-36.11.02-1.44.03-2.88.05-4.32.06-4.99.08-7.59.11-10.18l.06-5.43.15-14.23c.05-4.85.11-9.69.16-14.54.11-9.5.21-19 .31-28.5h9v133h-9c-.49-12.87-.49-12.87-1-26l-6 9c-8.11 9.89-19.27 16.32-32 18-4.21.31-8.4.41-12.62.44l-3.15.03c-14.2-.16-27.97-4.21-38.23-14.47-9.07-10.84-13.17-23.06-13.11-37.01 0-5.68 0-8.64.01-11.6 0-2.06.01-4.11.01-6.17 0-5.4.01-10.81.02-16.21.01-5.52.02-11.03.02-16.55.01-10.82.03-21.64.05-32.46zm160-30h9v30h44v8h-44c.12 16.08.12 16.08.26 32.17.06 6.56.12 13.13.16 19.69.04 5.3.09 10.6.14 15.9.02 2.01.03 4.02.04 6.04-.6 21.18-.6 21.18 9.21 39.01 6.8 4.67 14.16 5.02 22.19 4.19 5.84-1.52 10.89-3.81 16-7 3.96 4.32 3.96 4.32 4.13 7.06-2.83 4.87-8.63 6.97-13.83 8.4-12.21 2-25.09 2.23-35.53-5-7.18-5.71-10.1-12.55-11.77-21.46-.26-3.34-.25-6.65-.23-10 0-6.1.02-9.27.03-12.44.01-2.21.01-4.41.01-6.62.01-5.8.03-11.59.05-17.38.02-5.92.03-11.84.04-17.76.02-11.6.06-23.2.1-34.8h-25v-8h25v-30zm386-34.68c4.82 3.83 7.62 7.77 8.43 14.04.01 8.24-.33 14.2-6.05 20.38-6.85 6.35-14.41 6.88-23.39 6.63-6.46-.43-11.44-2.67-15.9-7.38-5.25-6.7-5.84-12.61-5.09-20.99 1.91-6.96 6.67-11.53 12.8-15.04 9.15-4.09 20.87-3.15 29.2 2.36z" fill="currentColor"/></svg>