<svg xmlns="http://www.w3.org/2000/svg" width="190" height="20" viewBox="0 0 202 21.367"><path fill="#fff" d="M188.83 20.513H202v-2.354h-13.17v2.354zm-5.382-3.606h4.642v-1.661l-1.364-.233V7.991c0-2.08-1.015-3.211-2.907-3.211-1.503 0-2.591.578-3.77 1.616l-.324-1.314h-4.178v1.963l1.385.324v7.646l-1.385.231v1.661h5.958v-1.661l-1.316-.231V8.107c.601-.37 1.341-.671 2.033-.671.902 0 1.227.461 1.227 1.641v7.83zm-14.094 0h4.642v-1.661l-1.364-.233V7.991c0-2.08-1.015-3.211-2.907-3.211-1.503 0-2.59.578-3.77 1.616l-.324-1.314h-4.178v1.963l1.386.324v7.646l-1.386.231v1.661h5.96v-1.661l-1.318-.231V8.107c.601-.37 1.339-.671 2.035-.671.9 0 1.225.461 1.225 1.641v7.83zm-9.59-1.845c-1.04 0-1.225-.14-1.225-.925V8.661c0-2.863-1.477-3.88-4.296-3.88-1.988 0-3.627.51-4.968 1.387l.923 2.077c1.11-.53 2.148-.854 3.375-.854 1.409 0 1.711.601 1.711 1.873v.578h-.692c-3.976 0-5.614 1.106-5.614 3.766 0 2.541 1.499 3.602 3.579 3.602 1.571 0 2.289-.576 3.006-1.269.322.967 1.13 1.269 2.238 1.269.9 0 1.661-.277 2.102-.53l-.139-1.618zm-6.145-.02c-.948 0-1.387-.464-1.387-1.62 0-1.482.692-1.85 2.312-1.85h.74v2.866c-.392.346-.879.604-1.665.604M136.962 4.78c-1.456 0-2.427.601-3.607 1.616l-.322-1.314h-4.18v1.963l1.387.324v7.646l-1.387.231v1.661h5.937v-1.661l-1.296-.231v-6.93c.604-.395 1.225-.625 1.851-.625.926 0 1.204.484 1.204 1.663v7.785h4.57v-1.661l-1.293-.233v-6.93c.599-.393 1.201-.624 1.873-.624.9 0 1.202.484 1.202 1.663v7.785h4.641v-1.57l-1.385-.23V7.991c0-2.08-1.017-3.211-2.863-3.211-1.433 0-2.451.601-3.63 1.664-.394-1.086-1.363-1.664-2.702-1.664m-13.15 10.189V8.661c.669-.416 1.341-.648 2.221-.648.482 0 .807.093 1.129.255l.418-3.371c-.116-.046-.348-.069-.51-.069-1.501 0-2.611.715-3.42 2.171l-.414-1.917h-4.065v1.961l1.387.324v7.646l-1.387.233v1.661h6.467v-1.661l-1.826-.277zm-11.134-8.225c1.272 0 1.643.646 1.643 3.144h-3.469c.091-2.544.669-3.144 1.826-3.144m.324 10.465c1.919 0 3.233-.508 4.436-1.386l-.878-1.848c-1.04.603-1.753.927-3.073.927-2.033 0-2.635-.902-2.657-3.055h6.699v-1.314c0-4.251-1.755-5.753-4.874-5.753-3.326 0-5.312 1.87-5.312 6.192-.001 4.459 1.914 6.237 5.659 6.237M98.744 0h-4.616v1.847l1.362.324v12.844l-1.362.231v1.661h5.843v-1.661l-1.227-.231V0zm.048 10.856l3.788 6.051h3.649v-1.685l-1.201-.208-3.209-4.944 2.541-2.838 1.409-.187V5.082h-4.965v1.917l1.154.162-3.166 3.695zM87.703 6.744c1.271 0 1.643.646 1.643 3.144h-3.471c.092-2.544.67-3.144 1.828-3.144m.324 10.465c1.917 0 3.231-.508 4.434-1.386l-.878-1.848c-1.038.603-1.753.927-3.071.927-2.033 0-2.637-.902-2.659-3.055h6.699v-1.314c0-4.251-1.753-5.753-4.874-5.753-3.326 0-5.311 1.87-5.311 6.192 0 4.459 1.915 6.237 5.66 6.237M77.835 3.833a1.89 1.89 0 0 0 1.896-1.893c0-1.04-.834-1.896-1.918-1.896a1.912 1.912 0 0 0-1.915 1.917c0 1.015.853 1.872 1.938 1.872h-.001zm1.733 11.182V5.082h-4.641v1.963l1.387.324v7.646l-1.387.231v1.661h6.028v-1.661l-1.387-.231zm-11.781-.021c-.74 0-1.434-.346-1.85-.67V7.901a3.3 3.3 0 0 1 1.965-.65c1.387 0 1.78.854 1.78 3.696 0 2.891-.393 4.047-1.895 4.047m-2.313-9.912h-4.178v1.963l1.385.324v12.195l-1.385.232v1.57h6.028v-1.57l-1.387-.232v-3.439c.669.624 1.618.992 2.773.992 2.68 0 4.479-1.385 4.479-6.353 0-4.622-1.845-5.984-4.063-5.984-1.501 0-2.657.925-3.306 1.641l-.346-1.339zM55.079 17.209c2.818 0 4.735-1.246 4.735-3.693 0-2.52-1.314-3.399-3.67-4.023-1.782-.438-2.289-.809-2.289-1.616 0-.788.622-1.181 1.687-1.181.532 0 .904.048 1.272.185l.393 1.641h2.101V5.496c-.923-.46-2.078-.716-3.72-.716-3.003 0-4.573 1.479-4.573 3.626 0 2.31 1.316 3.21 3.533 3.791 1.666.391 2.289.784 2.289 1.755 0 .88-.553 1.343-1.848 1.343-.649 0-.95-.093-1.366-.232l-.393-1.732h-2.192v3.071c.99.505 2.4.807 4.041.807m-10.326-.302h4.641v-1.661l-1.364-.233V7.991c0-2.08-1.015-3.211-2.909-3.211-1.501 0-2.589.578-3.768 1.616l-.324-1.314h-4.178v1.963l1.385.324v7.646l-1.385.231v1.661h5.958v-1.661l-1.316-.231V8.107c.601-.37 1.339-.671 2.034-.671.902 0 1.227.461 1.227 1.641v7.83zM30.358 6.744c1.272 0 1.641.646 1.641 3.144H28.53c.094-2.544.672-3.144 1.828-3.144m.322 10.465c1.919 0 3.235-.508 4.434-1.386l-.876-1.848c-1.038.603-1.755.927-3.071.927-2.035 0-2.636-.902-2.659-3.055h6.702v-1.314c0-4.251-1.755-5.753-4.874-5.753-3.329 0-5.314 1.87-5.314 6.192-.001 4.459 1.916 6.237 5.658 6.237m-13.655-2.287c-1.271 0-1.734-.994-1.734-3.814 0-2.91.486-3.879 1.944-3.879.832 0 1.177.324 1.662.692v6.354a3.081 3.081 0 0 1-1.872.647m2.45 1.985h4.065v-1.661l-1.387-.233V0h-4.641v1.847l1.387.301v3.764c-.67-.553-1.387-1.131-2.682-1.131-2.541 0-4.411 1.549-4.411 6.261 0 4.577 1.664 6.168 4.249 6.168 1.387 0 2.314-.508 3.123-1.454l.297 1.151zM5.335 6.744c1.271 0 1.643.646 1.643 3.144h-3.47c.092-2.544.67-3.144 1.827-3.144m.325 10.465c1.917 0 3.233-.508 4.433-1.386l-.877-1.848c-1.038.603-1.753.927-3.069.927-2.036 0-2.638-.902-2.661-3.055h6.699v-1.314c0-4.251-1.753-5.753-4.874-5.753C1.984 4.78 0 6.65 0 10.973c0 4.458 1.917 6.236 5.66 6.236"/></svg>