<svg xmlns="http://www.w3.org/2000/svg" id="dcd_icon-black" viewBox="0 0 320.5 90.5" shape-rendering="geometricPrecision"><style>.st0{fill:#fff}.st1{fill:#164194}</style><path d="M296.7 34.5a5.62 5.62 0 0 1-1.6-4.5c.2-1.7 1-3.3 2.2-4.2 1.4-1 3.1-1.4 4.8-1 1.7.3 3.1 1.4 3.9 2.8a4.42 4.42 0 0 0 6.1 1.7c1-.6 1.8-1.6 2.2-2.8.3-1.2.2-2.4-.5-3.4a14.8 14.8 0 0 0-9.9-7.1c-3.4-.7-7-.2-10.1 1.5l-.7.6c-2.4 1.1-4.3 3.8-4.5 4.1l-.6 1.1a14 14 0 0 0-1.9 6.2c-.3 3.2.5 6.3 2.2 9l.7 1c.3.4 15 15.6 15 15.6 1.2 1.2 1.9 3 1.8 4.9-.2 1.8-1 3.4-2.6 4.5-1.4 1-3.3 1.5-5 1.1a6.4 6.4 0 0 1-3-1.4l-.6-.6-.5-.6c-.1-.1-.1-.2-.2-.2-.8-1.4-2.3-2.3-3.9-2.3-.8 0-1.6.2-2.2.6a4.62 4.62 0 0 0-1.7 6.1l.1.1a15 15 0 0 0 10.2 7.3c1 .2 2 .3 3 .3 3.3 0 6.6-1.1 9.3-3.1 3.4-2.6 5.7-6.6 6.1-11 .3-4.4-1.3-8.7-4.3-11.8l-13.8-14.5zm-26.1 25.3V30.4c0-8.2-6.7-14.8-14.8-14.8-8.2 0-14.8 6.7-14.8 14.8v29.4c0 8.2 6.7 14.8 14.8 14.8 8.2 0 14.8-6.6 14.8-14.8zm-20.7 0V30.4c0-3.3 2.6-5.9 5.9-5.9 3.2 0 5.9 2.7 5.9 5.9v29.4c0 3.3-2.6 5.9-5.9 5.9-3.3 0-5.9-2.6-5.9-5.9zM197.6 18c-.8-1.5-2.4-2.5-4.1-2.5-.3 0-.6 0-.9.1-2.1.4-3.5 2.2-3.5 4.4v1l24.7 51.2c.8 1.5 2.4 2.5 4 2.5.4 0 .7-.1 1-.2 2.1-.4 3.5-2.2 3.5-4.4v-1s-24-49.8-24.7-51.1zm24.7 2c0-2.6-2-4.5-4.5-4.5-2.6 0-4.5 2-4.5 4.5v24.3l8.9 18.6V20zm-33.2 50.1c0 2.6 2 4.5 4.5 4.5 2.6 0 4.5-2 4.5-4.5V45.8l-8.9-18.6-.1 42.9zm-23.2.2c2.8-2.8 4.4-6.5 4.4-10.5V30.4c0-4-1.5-7.7-4.4-10.5-2.8-2.8-6.5-4.4-10.5-4.4s-7.7 1.5-10.5 4.4c-2.8 2.8-4.4 6.5-4.4 10.5v29.4c0 4 1.5 7.7 4.4 10.5 2.8 2.8 6.5 4.4 10.5 4.4 4-.1 7.7-1.6 10.5-4.4zm-16.3-10.5V30.4c0-1.6.6-3 1.8-4.1a5.54 5.54 0 0 1 8.2 0c1.1 1.2 1.8 2.6 1.8 4.1v29.4c0 1.6-.6 3-1.8 4.1a5.66 5.66 0 0 1-8.2.1 5.26 5.26 0 0 1-1.8-4.2zm-27.9-40.3c0-.2-.1-.2-.1-.3a4.89 4.89 0 0 0-9.6 1.2v49.3c0 2.8 2.2 4.9 4.9 4.9 2.8 0 4.9-2.2 4.9-4.9V20.4c0-.2 0-.5-.1-.8v-.1z" class="st0"/><path d="M.8.8v88.8h88.8V.8H.8zm87.5 87.5h-86v-86h85.9v86z" class="st0" shape-rendering="crispEdges"/><path d="M2.3 88.3h85.9v-86H2.3v86zm59.9-63.4h14.6v40.4h-8.1V31.4h-6.5v-6.5zM38.4 42.3C34.7 37.6 34 36 34 33c0-5 4.2-8.6 10.3-8.6 5.6 0 9.6 3.8 9.6 8.9 0 3.8-1.6 6.5-6.3 10.4l7 9.5c.5-.5 1.1-3.8 1-6.3 0-.3-.1-1.3-.2-2.2h6.5c0 .9.1 2.1.1 2.4 0 5.1-.8 8.3-3.3 11.4l5.2 6.8H56l-1.8-2.4c-3 2.4-5.6 3.2-9.7 3.2-8.1-.1-13.8-4.2-14.3-11.6-.5-4.4 2.5-9 8.2-12.2zM10.5 24.9h14.6v40.4H17V31.4h-6.5v-6.5z" class="st1"/><path d="M44.4 59.7c2.5 0 4.2-.9 5.6-2.1l-7.7-10.2c-3.6 2.4-5 4.7-4.9 6.9.1 3.3 2.9 5.4 7 5.4zm3.1-26.5c0-1.8-1.3-3-3.3-3-2 0-3.4 1.3-3.4 3.1 0 1.6.5 2.6 2.8 5.6 2.9-2.1 3.9-3.9 3.9-5.7z" class="st1"/><path d="M68.8 65.3h8.1V24.9H62.2v6.5h6.5l.1 33.9zm-24.4.8c4.2 0 6.7-.9 9.7-3.2l1.8 2.4h8l-5.2-6.8c2.4-3.1 3.3-6.3 3.3-11.4 0-.3-.1-1.6-.1-2.4h-6.5c.1 1 .2 1.9.2 2.2.1 2.6-.4 5.8-1 6.3l-7-9.5c4.7-3.9 6.3-6.7 6.3-10.4 0-5.1-4-8.9-9.6-8.9-6 0-10.3 3.7-10.3 8.6 0 2.9.8 4.5 4.4 9.2-5.6 3.3-8.6 7.8-8.3 12.2.5 7.5 6.1 11.6 14.3 11.7zm-.2-35.9c2 0 3.3 1.2 3.3 3s-1 3.7-3.8 5.6c-2.4-3-2.8-3.9-2.8-5.6 0-1.7 1.4-3 3.3-3zm-1.8 17.2L50 57.6a8.33 8.33 0 0 1-5.6 2.1c-4.1 0-6.9-2.1-7-5.5-.1-2.1 1.4-4.4 5-6.8zM17 65.3h8.1V24.9H10.5v6.5H17v33.9z" class="st0"/></svg>