<svg xmlns="http://www.w3.org/2000/svg"><symbol viewBox="0 0 30 29.998" id="alert" xmlns="http://www.w3.org/2000/svg"><path d="M9.373 26.151c-.468 0-.907-.182-1.236-.512l-3.83-3.815a1.738 1.738 0 0 1-.513-1.237c0-.468.181-.906.511-1.236l4.227-4.227c.062-.062.071-.137.071-.175s-.009-.112-.071-.173l-4.221-4.19a1.73 1.73 0 0 1-.515-1.233c-.001-.47.18-.91.51-1.24l3.861-3.86c.66-.662 1.817-.657 2.475.002l4.183 4.192c.124.125.226.127.352 0l4.195-4.194c.661-.662 1.815-.657 2.476.002l3.85 3.858c.33.332.511.771.509 1.24a1.726 1.726 0 0 1-.517 1.234l-4.219 4.188a.247.247 0 0 0 0 .349l4.225 4.228c.33.328.511.769.511 1.236 0 .469-.183.908-.511 1.236L21.88 25.64c-.658.66-1.814.66-2.475 0l-4.226-4.227c-.126-.126-.229-.125-.352 0l-4.214 4.225a1.737 1.737 0 0 1-1.24.513zm.03-20.912a.251.251 0 0 0-.176.072l-3.861 3.86c-.062.062-.071.137-.071.176s.009.111.071.174l4.221 4.189c.331.327.514.768.515 1.234.001.469-.18.908-.51 1.238l-4.227 4.227a.254.254 0 0 0 .001.354l3.83 3.815c.126.125.229.125.354 0l4.214-4.226c.658-.66 1.814-.662 2.474-.002l4.227 4.228c.125.125.229.125.354 0l3.816-3.815a.254.254 0 0 0 0-.355L20.41 16.18a1.737 1.737 0 0 1-.512-1.238c.002-.469.186-.907.517-1.235l4.219-4.187a.252.252 0 0 0 .001-.352l-3.85-3.859c-.125-.123-.227-.125-.352 0l-4.195 4.195c-.66.661-1.816.659-2.475-.002L9.58 5.31a.256.256 0 0 0-.177-.071z"/></symbol><symbol viewBox="0 0 30 29.998" id="blurb"><path d="M21.258 17.353l-3.301-1.416-.703-3.521a.757.757 0 0 0-.543-.577.762.762 0 0 0-.758.23l-2.365 2.699-3.566-.418a.757.757 0 0 0-.717.338.756.756 0 0 0-.016.791l1.838 3.086-1.5 3.261a.75.75 0 0 0 .846 1.045l3.502-.792 2.641 2.434a.745.745 0 0 0 .779.148.753.753 0 0 0 .477-.633l.328-3.573 3.131-1.759a.755.755 0 0 0 .383-.693.764.764 0 0 0-.456-.65zm-4.139 1.986a.756.756 0 0 0-.381.586l-.225 2.454-1.812-1.671a.747.747 0 0 0-.674-.179l-2.404.545 1.029-2.239a.743.743 0 0 0-.037-.696l-1.262-2.119 2.449.287a.763.763 0 0 0 .65-.252l1.625-1.854.484 2.419a.755.755 0 0 0 .439.542l2.266.972-2.147 1.205zm8.018-7.426l-3.283-6.812c-.334-.69-1.143-1.358-1.885-1.557l-8.09-2.148c-.914-.245-1.899.328-2.143 1.242l-5.34 20.117a1.752 1.752 0 0 0 1.242 2.141l14.104 3.746a1.741 1.741 0 0 0 2.14-1.242l3.479-13.102c.19-.703.092-1.731-.224-2.385zm-1.625.081l-3.713-.983 1.148-4.332 2.565 5.315zm-3.076 15.021a.254.254 0 0 1-.242.187L6.025 23.446a.253.253 0 0 1-.178-.307l5.34-20.117c.031-.114.133-.178.279-.178h.025l8.092 2.148c.072.02.152.057.232.102l-1.66 6.256a.75.75 0 0 0 .533.916l5.258 1.396a1.39 1.39 0 0 1-.033.251l-3.477 13.102z"/></symbol><symbol id="bookishfirst-logo" xml:space="preserve" viewBox="0 0 490 69" xmlns="http://www.w3.org/2000/svg"><style type="text/css" id="acstyle3767">.acst0{fill:#231f20}</style><g id="acg3807" fill="#0076a3" fill-opacity="1"><g id="acg3783" fill="#0076a3" fill-opacity="1"><path class="acst0" d="M251.1 32.8c-1.1 1.2-3.6 1-4.9-1.3-1.4-2.4-1-5 .4-6.5s3.9-.4 5.1 1.9c1.2 2.3.6 4.7-.6 5.9m-19.4 22.7c2.2-6.4 7.9-16.7 11.2-21.2.8-1 1.4-1.3 2.1-.5 1.3 1.4 2 5.1-.1 9.5-1.8 3.8-5.5 9.8-7.3 14.1-2.1 5.1-1.9 8.5.9 8.3 3.9-.1 8.7-5.9 11.3-11.9.4-.8 1-.7 1.4 0 .7 1.4.4 3.2-.6 5.4-2.6 5.4-8.1 9.1-13 9.1-6.7 0-8.4-5.6-5.9-12.8" id="acpath3769" fill="#0076a3" fill-opacity="1"/><path class="acst0" d="M252.5 57.4c1.3 5.1 3.8 8.6 6.7 7.8 4-1.2 2.7-14.9 2.4-21.9-2.5 4.6-5.7 9.4-9.1 14.1m9.3-19.7c.4-3.4 1.3-5.1 3.1-6.7 1.9-1.7 3.9-2.1 4.7-1.3.9.9.4 1.8-.7 3.8-.3.5-.6 1-1 1.7-.6 8 1 14.8.8 20.9-.2 3.4-.8 7.1-3.9 9.2 5.8-2.2 9.5-7.4 11.7-12.1.4-1 1.3-.7 1.7 0 .3.8.3 3.1-1.2 5.8-3.3 6-9.2 9.3-15.4 9.6-5.1.2-9.9-1.1-12.9-6.5-2.1-3.9-1.8-9.7 1.1-12.1 1-.9 1.7-.5 1.8.9.1.7.1 1.4.2 2.1 3.5-5.2 7.5-10.9 10-15.3" id="acpath3771" fill="#0076a3" fill-opacity="1"/><path class="acst0" d="M296.6 68.4c-7.3 0-9.2-5.3-6.5-12.9 2.9-8.5 10.5-17.5 9.1-18.3-1.2-.7-10.7 5.2-15.8 13.5-3.1 5.1-6.4 11.3-8.5 16.6-.3.8-1 1-1.5.4-1.4-1.6-2.2-4-.3-9.2 3.1-8.7 24.2-48.3 31.3-57.1.8-1 1.7-1 2.1.1 1.1 2.5.9 6.9-2.4 12.4-2.1 3.5-9.8 19.4-13.5 25.3 3.6-3.5 8.1-6.4 10.5-6.1 3 .3 5.7 4.7 3.4 9.2-1.9 3.8-6.1 10.2-8.1 14.7-2.2 5.1-1.7 9.2 1.5 9 3.6-.2 8.4-6.5 11.1-12 .3-.8 1.2-.8 1.6-.1.4 1 .4 2.8-.9 5.4-2.6 4.7-8 9.1-13.1 9.1" id="acpath3773" fill="#0076a3" fill-opacity="1"/><path class="acst0" d="M113.3 7.8v22.1h5.6c3.5 0 5.4-1.9 5.4-5.4V12.8c0-3.2-1.8-5-5-5h-5zm0 29v23.4h6.2c3.2 0 5-1.8 5-5v-13c0-3.5-1.9-5.4-5.4-5.4h-4.8zm7.9 30.7H105V.6h16c8 0 11.8 3.7 11.8 11.8v10.2c0 5.3-1.6 8.3-5.2 9.6l-2.8 1 2.9.9c3.8 1.3 5.4 3.9 5.4 9v12.7c-.2 7.9-3.9 11.7-11.9 11.7" id="acpath3775" fill="#0076a3" fill-opacity="1"/><path class="acst0" d="M182.5 7.2c-3.3 0-5.1 1.8-5.1 5.1v43.6c0 3.3 1.8 5.1 5.1 5.1h2.2c3.3 0 5-1.8 5-5.1V12.3c0-3.3-1.7-5.1-5-5.1zm3.8 60.9h-5.6c-8 0-11.8-3.7-11.8-11.8V11.8c0-8 3.7-11.8 11.8-11.8h5.6c8 0 11.8 3.7 11.8 11.8v44.5c0 8-3.7 11.8-11.8 11.8" id="acpath3777" fill="#0076a3" fill-opacity="1"/><path class="acst0" d="M150 7.2c-3.3 0-5.1 1.8-5.1 5.1v43.6c0 3.3 1.8 5.1 5.1 5.1h2.2c3.3 0 5-1.8 5-5.1V12.3c0-3.3-1.7-5.1-5-5.1zm3.8 60.9h-5.6c-8 0-11.8-3.7-11.8-11.8V11.8c0-8 3.7-11.8 11.8-11.8h5.6c8 0 11.8 3.7 11.8 11.8v44.5c0 8-3.8 11.8-11.8 11.8" id="acpath3779" fill="#0076a3" fill-opacity="1"/><path class="acst0" id="acpolygon3781" fill="#0076a3" fill-opacity="1" d="M210.3 34.4v33.1h-8.5V.6h8.5v32.6L221 .6h8.8l-11.4 32.5-.1.3.1.4 11 33.7h-9.1z"/></g><g id="acg3795" fill="#0076a3" fill-opacity="1"><path class="acst0" d="M321.8 68V.9h22.8v8.6H332V30h10.9v8.2H332V68z" id="acpath3785" fill="#0076a3" fill-opacity="1"/><path class="acst0" d="M348.2 68V.9h10.2V68z" id="acpath3787" fill="#0076a3" fill-opacity="1"/><path class="acst0" d="M362.6 68V.9H378c2.6 0 4.7.3 6.5.8 1.7.5 3.1 1.3 4 2.4.9 1.1 1.6 2.3 2 3.6.4 1.3.6 2.9.6 4.7v16c0 3-.5 5.4-1.6 7.2-1 1.8-2.9 3-5.6 3.7 1.5 4.2 4.9 13.8 10.1 28.7h-10.2c-1-2.9-2.5-7.6-4.6-13.9-2.1-6.3-3.7-11.1-4.8-14.5h-1.6V68zm10.1-36.5h4.4c1.3 0 2.3-.3 2.8-.8.6-.5.8-1.4.8-2.5V12.8c0-1.2-.3-2-.9-2.5-.6-.5-1.5-.8-2.9-.8h-4.3v22z" id="acpath3789" fill="#0076a3" fill-opacity="1"/><path class="acst0" d="M394 57.1v-9.2h10.2V57c0 2.7 1.3 4 4 4s4-1.3 4-4v-7.4c0-2.5-.3-4.7-1-6.5-.7-1.8-1.5-3.3-2.6-4.4-1.1-1.1-2.3-2.1-3.5-3-1.2-.9-2.6-1.8-3.9-2.8-1.3-1-2.5-2-3.5-3.2-1.1-1.2-1.9-2.8-2.6-4.8-.7-2-1-4.4-1-7.1V12c0-8 4.7-12 14.1-12 9.4 0 14.2 4 14.2 12v8.1h-10.2v-8.2c0-2.6-1.3-4-4-4s-4 1.3-4 3.9v5.6c0 2.2.3 4 1 5.6.7 1.6 1.5 2.8 2.6 3.7 1.1.9 2.3 1.8 3.5 2.7 1.3.8 2.6 1.8 3.9 2.8 1.3 1 2.5 2.2 3.5 3.5 1.1 1.3 1.9 3.2 2.6 5.5.7 2.3 1 5 1 8.1v7.8c0 3.7-1.1 6.6-3.3 8.7-2.2 2.1-5.8 3.1-10.9 3.1-5.1 0-8.7-1-10.9-3.1-2.1-2.1-3.2-5-3.2-8.7z" id="acpath3791" fill="#0076a3" fill-opacity="1"/><path class="acst0" d="M422.7 9.5V.9h27.4v8.6h-8.7V68h-10.2V9.5z" id="acpath3793" fill="#0076a3" fill-opacity="1"/></g><path class="acst0" id="acrect3797" fill="#0076a3" fill-opacity="1" d="M9.5 53h80.8v9.4H9.5z"/><path class="acst0" id="acrect3799" fill="#0076a3" fill-opacity="1" d="M18.4 36.3h66v14.1h-66z"/><path class="acst0" id="acrect3801" fill="#0076a3" fill-opacity="1" d="M0 29.1h56.5v4.7H0z"/><path class="acst0" id="acrect3803" fill="#0076a3" fill-opacity="1" d="M7.6 17.3h62.1v9.4H7.6z"/><path class="acst0" id="acrect3805" fill="#0076a3" fill-opacity="1" d="M3.1 10.4h80.8v4.7H3.1z"/></g></symbol><symbol id="bookishfirst-logo-white" xml:space="preserve" viewBox="0 0 490 69" xmlns="http://www.w3.org/2000/svg"><style type="text/css" id="adstyle3767">.adst0{fill:#231f20}</style><g id="adg3807" fill="#fff" fill-opacity="1"><g id="adg3783" fill="#fff" fill-opacity="1"><path class="adst0" d="M251.1 32.8c-1.1 1.2-3.6 1-4.9-1.3-1.4-2.4-1-5 .4-6.5s3.9-.4 5.1 1.9c1.2 2.3.6 4.7-.6 5.9m-19.4 22.7c2.2-6.4 7.9-16.7 11.2-21.2.8-1 1.4-1.3 2.1-.5 1.3 1.4 2 5.1-.1 9.5-1.8 3.8-5.5 9.8-7.3 14.1-2.1 5.1-1.9 8.5.9 8.3 3.9-.1 8.7-5.9 11.3-11.9.4-.8 1-.7 1.4 0 .7 1.4.4 3.2-.6 5.4-2.6 5.4-8.1 9.1-13 9.1-6.7 0-8.4-5.6-5.9-12.8" id="adpath3769" fill="#fff" fill-opacity="1"/><path class="adst0" d="M252.5 57.4c1.3 5.1 3.8 8.6 6.7 7.8 4-1.2 2.7-14.9 2.4-21.9-2.5 4.6-5.7 9.4-9.1 14.1m9.3-19.7c.4-3.4 1.3-5.1 3.1-6.7 1.9-1.7 3.9-2.1 4.7-1.3.9.9.4 1.8-.7 3.8-.3.5-.6 1-1 1.7-.6 8 1 14.8.8 20.9-.2 3.4-.8 7.1-3.9 9.2 5.8-2.2 9.5-7.4 11.7-12.1.4-1 1.3-.7 1.7 0 .3.8.3 3.1-1.2 5.8-3.3 6-9.2 9.3-15.4 9.6-5.1.2-9.9-1.1-12.9-6.5-2.1-3.9-1.8-9.7 1.1-12.1 1-.9 1.7-.5 1.8.9.1.7.1 1.4.2 2.1 3.5-5.2 7.5-10.9 10-15.3" id="adpath3771" fill="#fff" fill-opacity="1"/><path class="adst0" d="M296.6 68.4c-7.3 0-9.2-5.3-6.5-12.9 2.9-8.5 10.5-17.5 9.1-18.3-1.2-.7-10.7 5.2-15.8 13.5-3.1 5.1-6.4 11.3-8.5 16.6-.3.8-1 1-1.5.4-1.4-1.6-2.2-4-.3-9.2 3.1-8.7 24.2-48.3 31.3-57.1.8-1 1.7-1 2.1.1 1.1 2.5.9 6.9-2.4 12.4-2.1 3.5-9.8 19.4-13.5 25.3 3.6-3.5 8.1-6.4 10.5-6.1 3 .3 5.7 4.7 3.4 9.2-1.9 3.8-6.1 10.2-8.1 14.7-2.2 5.1-1.7 9.2 1.5 9 3.6-.2 8.4-6.5 11.1-12 .3-.8 1.2-.8 1.6-.1.4 1 .4 2.8-.9 5.4-2.6 4.7-8 9.1-13.1 9.1" id="adpath3773" fill="#fff" fill-opacity="1"/><path class="adst0" d="M113.3 7.8v22.1h5.6c3.5 0 5.4-1.9 5.4-5.4V12.8c0-3.2-1.8-5-5-5h-5zm0 29v23.4h6.2c3.2 0 5-1.8 5-5v-13c0-3.5-1.9-5.4-5.4-5.4h-4.8zm7.9 30.7H105V.6h16c8 0 11.8 3.7 11.8 11.8v10.2c0 5.3-1.6 8.3-5.2 9.6l-2.8 1 2.9.9c3.8 1.3 5.4 3.9 5.4 9v12.7c-.2 7.9-3.9 11.7-11.9 11.7" id="adpath3775" fill="#fff" fill-opacity="1"/><path class="adst0" d="M182.5 7.2c-3.3 0-5.1 1.8-5.1 5.1v43.6c0 3.3 1.8 5.1 5.1 5.1h2.2c3.3 0 5-1.8 5-5.1V12.3c0-3.3-1.7-5.1-5-5.1zm3.8 60.9h-5.6c-8 0-11.8-3.7-11.8-11.8V11.8c0-8 3.7-11.8 11.8-11.8h5.6c8 0 11.8 3.7 11.8 11.8v44.5c0 8-3.7 11.8-11.8 11.8" id="adpath3777" fill="#fff" fill-opacity="1"/><path class="adst0" d="M150 7.2c-3.3 0-5.1 1.8-5.1 5.1v43.6c0 3.3 1.8 5.1 5.1 5.1h2.2c3.3 0 5-1.8 5-5.1V12.3c0-3.3-1.7-5.1-5-5.1zm3.8 60.9h-5.6c-8 0-11.8-3.7-11.8-11.8V11.8c0-8 3.7-11.8 11.8-11.8h5.6c8 0 11.8 3.7 11.8 11.8v44.5c0 8-3.8 11.8-11.8 11.8" id="adpath3779" fill="#fff" fill-opacity="1"/><path class="adst0" id="adpolygon3781" fill="#fff" fill-opacity="1" d="M210.3 34.4v33.1h-8.5V.6h8.5v32.6L221 .6h8.8l-11.4 32.5-.1.3.1.4 11 33.7h-9.1z"/></g><g id="adg3795" fill="#fff" fill-opacity="1"><path class="adst0" d="M321.8 68V.9h22.8v8.6H332V30h10.9v8.2H332V68z" id="adpath3785" fill="#fff" fill-opacity="1"/><path class="adst0" d="M348.2 68V.9h10.2V68z" id="adpath3787" fill="#fff" fill-opacity="1"/><path class="adst0" d="M362.6 68V.9H378c2.6 0 4.7.3 6.5.8 1.7.5 3.1 1.3 4 2.4.9 1.1 1.6 2.3 2 3.6.4 1.3.6 2.9.6 4.7v16c0 3-.5 5.4-1.6 7.2-1 1.8-2.9 3-5.6 3.7 1.5 4.2 4.9 13.8 10.1 28.7h-10.2c-1-2.9-2.5-7.6-4.6-13.9-2.1-6.3-3.7-11.1-4.8-14.5h-1.6V68zm10.1-36.5h4.4c1.3 0 2.3-.3 2.8-.8.6-.5.8-1.4.8-2.5V12.8c0-1.2-.3-2-.9-2.5-.6-.5-1.5-.8-2.9-.8h-4.3v22z" id="adpath3789" fill="#fff" fill-opacity="1"/><path class="adst0" d="M394 57.1v-9.2h10.2V57c0 2.7 1.3 4 4 4s4-1.3 4-4v-7.4c0-2.5-.3-4.7-1-6.5-.7-1.8-1.5-3.3-2.6-4.4-1.1-1.1-2.3-2.1-3.5-3-1.2-.9-2.6-1.8-3.9-2.8-1.3-1-2.5-2-3.5-3.2-1.1-1.2-1.9-2.8-2.6-4.8-.7-2-1-4.4-1-7.1V12c0-8 4.7-12 14.1-12 9.4 0 14.2 4 14.2 12v8.1h-10.2v-8.2c0-2.6-1.3-4-4-4s-4 1.3-4 3.9v5.6c0 2.2.3 4 1 5.6.7 1.6 1.5 2.8 2.6 3.7 1.1.9 2.3 1.8 3.5 2.7 1.3.8 2.6 1.8 3.9 2.8 1.3 1 2.5 2.2 3.5 3.5 1.1 1.3 1.9 3.2 2.6 5.5.7 2.3 1 5 1 8.1v7.8c0 3.7-1.1 6.6-3.3 8.7-2.2 2.1-5.8 3.1-10.9 3.1-5.1 0-8.7-1-10.9-3.1-2.1-2.1-3.2-5-3.2-8.7z" id="adpath3791" fill="#fff" fill-opacity="1"/><path class="adst0" d="M422.7 9.5V.9h27.4v8.6h-8.7V68h-10.2V9.5z" id="adpath3793" fill="#fff" fill-opacity="1"/></g><path class="adst0" id="adrect3797" fill="#fff" fill-opacity="1" d="M9.5 53h80.8v9.4H9.5z"/><path class="adst0" id="adrect3799" fill="#fff" fill-opacity="1" d="M18.4 36.3h66v14.1h-66z"/><path class="adst0" id="adrect3801" fill="#fff" fill-opacity="1" d="M0 29.1h56.5v4.7H0z"/><path class="adst0" id="adrect3803" fill="#fff" fill-opacity="1" d="M7.6 17.3h62.1v9.4H7.6z"/><path class="adst0" id="adrect3805" fill="#fff" fill-opacity="1" d="M3.1 10.4h80.8v4.7H3.1z"/></g></symbol><symbol viewBox="0 0 30 29.998" id="cart" xmlns="http://www.w3.org/2000/svg"><path d="M5.221 25.921a1.216 1.216 0 0 1-1.483.857 1.213 1.213 0 0 1-.859-1.483 1.227 1.227 0 0 1 1.484-.858c.646.173 1.03.839.858 1.484zm3.267-1.764c-.785-.206-1.629.279-1.838 1.062a1.49 1.49 0 0 0 .148 1.137 1.492 1.492 0 0 0 1.302.753c.676 0 1.271-.457 1.448-1.111a1.504 1.504 0 0 0-1.06-1.841zm19.321-1.269a3.235 3.235 0 0 1-2.817 1.625 3.255 3.255 0 0 1-3.139-2.41 3.224 3.224 0 0 1 .047-1.824l-5.354 1.435c.45.409.795.938.961 1.556a3.234 3.234 0 0 1-.324 2.467 3.243 3.243 0 0 1-2.819 1.625 3.253 3.253 0 0 1-2.813-4.875c.014-.024.033-.045.049-.068l-.006-.01-6.77-14.118-2.297.614a.743.743 0 0 1-.918-.529.751.751 0 0 1 .529-.919l2.897-.776a.747.747 0 0 1 .87.4L6.956 9.27l12.379-3.315 6.762-1.812a.75.75 0 0 1 .943.746l-.242 8.193c-.074 2.477-1.254 3.104-1.812 3.262l-2.668.717-.006.002h-.008l-5.785 1.551-.002.002h-.004l-4.498 1.205.659 1.375 11.403-3.055c.009-.002.017 0 .023 0 .018-.006.03-.015.047-.019a3.256 3.256 0 0 1 3.662 4.766zm-16.45-4.444l4.048-1.086-.905-3.381-4.684 1.254 1.541 3.213zm3.298-9.683l.905 3.381 4.347-1.164-.906-3.381-4.346 1.164zm1.294 4.83l.904 3.381 4.348-1.164-.906-3.381-4.346 1.164zm9.352-.554l.059-1.968-3.614.969.905 3.38 1.9-.509c.463-.129.715-.67.75-1.872zm.213-7.184l-5.062 1.355.906 3.381 4.049-1.085.107-3.651zM7.62 10.646l1.539 3.211 4.954-1.328-.905-3.379-5.588 1.496zm8.441 13.009a1.751 1.751 0 0 0-3.381.904c.243.914 1.223 1.481 2.144 1.237a1.745 1.745 0 0 0 1.237-2.141zm10.625-2.845a1.752 1.752 0 0 0-2.142-1.238c-.453.121-.83.41-1.062.816a1.732 1.732 0 0 0-.176 1.326c.244.912 1.227 1.484 2.143 1.238.453-.121.83-.41 1.064-.814a1.76 1.76 0 0 0 .173-1.328z"/></symbol><symbol viewBox="0 0 30 29.998" id="clipboard" xmlns="http://www.w3.org/2000/svg"><path d="M24.626 7.783l-1.735-.464-.994-.266c.234-2.279-1.197-4.464-3.479-5.074a4.719 4.719 0 0 0-5.552 2.654l-1.277-.343h-.003l-1.447-.389a1.753 1.753 0 0 0-2.144 1.237L3.598 21.56a1.753 1.753 0 0 0 1.236 2.144l14.488 3.882c.15.04.303.061.453.061.771 0 1.479-.517 1.689-1.297l4.4-16.422a1.752 1.752 0 0 0-1.238-2.145zm-9.064-4.03a3.212 3.212 0 0 1 2.465-.324 3.258 3.258 0 0 1 2.3 3.98.775.775 0 0 0-.019.298c.008.062.037.118.061.176a.74.74 0 0 0 .488.445l.965.259h.001l.241.064-.401 1.498-10.142-2.718.4-1.496.241.063h.003l.963.258a.743.743 0 0 0 .919-.53 3.241 3.241 0 0 1 1.515-1.973zm4.454 22.206a.254.254 0 0 1-.307.177L5.221 22.254a.253.253 0 0 1-.177-.306L9.441 5.526a.25.25 0 0 1 .307-.176l.727.193-.597 2.224a.75.75 0 0 0 .53.92l11.591 3.105a.75.75 0 0 0 .919-.532l.596-2.224.725.192a.254.254 0 0 1 .178.307l-4.401 16.424zm-.051-11.399a.751.751 0 0 1-.919.531l-7.729-2.069a.752.752 0 0 1-.529-.92.748.748 0 0 1 .919-.529l7.729 2.07a.747.747 0 0 1 .529.917zm-.906 3.378a.75.75 0 0 1-.918.532l-7.728-2.07a.75.75 0 1 1 .39-1.448l7.727 2.069a.75.75 0 0 1 .529.917zm-.907 3.381a.752.752 0 0 1-.92.532l-7.728-2.07a.749.749 0 1 1 .39-1.448l7.728 2.069a.749.749 0 0 1 .53.917zM15.889 7.317a1.479 1.479 0 0 1-.148-1.139 1.526 1.526 0 0 1 1.837-1.062 1.508 1.508 0 0 1 1.062 1.84 1.505 1.505 0 0 1-1.838 1.059 1.471 1.471 0 0 1-.913-.698z"/></symbol><symbol viewBox="0 0 30 29.998" id="dice" xmlns="http://www.w3.org/2000/svg"><path d="M19.618 21.829a1.74 1.74 0 0 1-.452-.061l-12.621-3.38a1.753 1.753 0 0 1-1.238-2.143L8.689 3.623c.244-.91 1.229-1.481 2.144-1.237l12.621 3.381a1.752 1.752 0 0 1 1.237 2.144L21.31 20.534a1.754 1.754 0 0 1-1.692 1.295zM10.417 3.834c-.145 0-.248.063-.278.177L6.758 16.634a.255.255 0 0 0 .177.307l12.685 3.39c.097 0 .21-.062.243-.185l3.382-12.623a.255.255 0 0 0-.177-.307L10.447 3.835l-.03-.001zm9.867 4.447c-.595-.344-1.421-.123-1.769.474a1.28 1.28 0 0 0-.127.981c.09.334.303.612.604.785a1.298 1.298 0 0 0 1.765-.474 1.299 1.299 0 0 0-.473-1.766zm-4.641 2.693c-.594-.346-1.418-.124-1.768.473a1.299 1.299 0 0 0 .476 1.77 1.294 1.294 0 0 0 1.292-2.243zm-4.633 2.661c-.596-.343-1.423-.121-1.766.474-.173.299-.22.648-.13.982a1.287 1.287 0 0 0 1.247.957c.46 0 .89-.246 1.123-.646a1.302 1.302 0 0 0-.474-1.767zM7.427 27.114l1.449-5.41a.752.752 0 0 0-.531-.92.753.753 0 0 0-.918.531l-1.449 5.41a.75.75 0 0 0 1.449.389zm3.984 0l.876-3.271a.75.75 0 0 0-1.449-.389l-.876 3.271a.75.75 0 0 0 1.449.389z"/></symbol><symbol viewBox="0 0 30 29.998" id="doc" xmlns="http://www.w3.org/2000/svg"><path d="M21.378 25.75c-.099 0-.196-.013-.292-.038l-.585-.156a.75.75 0 1 1 .388-1.449l.411.109a.813.813 0 0 0 .103-.23l4.5-16.799a.254.254 0 0 0-.176-.307L13.723 3.664a.904.904 0 0 0-.25-.031l-.095.349a.745.745 0 0 1-.918.531.749.749 0 0 1-.53-.918l.147-.556c.196-.728 1.073-1.081 2.032-.824l12.004 3.216a1.74 1.74 0 0 1 1.062.816c.235.404.297.877.176 1.326l-4.5 16.8c-.146.536-.457.976-.855 1.206a1.243 1.243 0 0 1-.618.171zm-2.767 1.069l4.502-16.799a1.73 1.73 0 0 0-.176-1.326 1.743 1.743 0 0 0-1.062-.816L9.872 4.662c-.913-.24-1.897.325-2.144 1.237L3.227 22.696a1.754 1.754 0 0 0 1.237 2.145l12.003 3.217c.146.039.301.061.452.061a1.755 1.755 0 0 0 1.692-1.3zM9.484 6.11l12.002 3.217a.253.253 0 0 1 .178.306l-4.501 16.8a.255.255 0 0 1-.242.186L4.855 23.392a.254.254 0 0 1-.178-.306L9.18 6.288c.029-.114.132-.178.277-.178h.027zm9.056 6.465a.754.754 0 0 0-.53-.92l-6.949-1.86a.75.75 0 1 0-.39 1.449l6.95 1.86a.748.748 0 0 0 .919-.529zm-.968 3.608a.753.753 0 0 0-.529-.92l-6.95-1.861a.751.751 0 0 0-.389 1.449l6.95 1.861a.748.748 0 0 0 .918-.529zm-2.761 3.386a.753.753 0 0 0-.529-.92l-5.219-1.396a.752.752 0 0 0-.92.53.752.752 0 0 0 .53.919l5.22 1.396a.748.748 0 0 0 .918-.529z"/></symbol><symbol viewBox="0 0 30 29.998" id="external-review" xmlns="http://www.w3.org/2000/svg"><path d="M19.977 13.567a.74.74 0 0 1-.529-.221l-3.375-3.375a.747.747 0 0 1 0-1.059l3.281-3.281-1.852-1.854a.755.755 0 0 1-.178-.782.754.754 0 0 1 .633-.493l9.033-.892c.223-.024.443.057.604.216s.238.381.217.604l-.893 9.032a.752.752 0 0 1-.492.634.751.751 0 0 1-.783-.177l-1.854-1.854-3.281 3.283a.753.753 0 0 1-.531.219zm-2.315-4.125l2.314 2.313 3.283-3.282a.746.746 0 0 1 .529-.22c.199 0 .391.079.529.22l1.262 1.262.646-6.545-6.545.647 1.264 1.264a.751.751 0 0 1 0 1.062l-3.282 3.279zm-11.139 18.9a.749.749 0 0 1-.738-.876l1.066-6.246-4.541-4.424a.749.749 0 1 1 .416-1.28l6.27-.918 2.805-5.686a.748.748 0 1 1 1.344 0l2.811 5.684 6.271.905a.744.744 0 0 1 .604.511c.09.27.018.568-.188.768l-4.535 4.432 1.076 6.244a.746.746 0 0 1-.297.732.755.755 0 0 1-.791.059l-5.613-2.943-5.607 2.952a.773.773 0 0 1-.353.086zM4.445 16.78l3.736 3.64c.176.172.258.42.215.663l-.876 5.139 4.611-2.429a.747.747 0 0 1 .697 0l4.617 2.421-.885-5.136a.752.752 0 0 1 .215-.663l3.73-3.645-5.158-.746a.746.746 0 0 1-.564-.41l-2.311-4.674-2.307 4.677a.747.747 0 0 1-.564.409l-5.156.754z"/></symbol><symbol viewBox="0 0 30 29.998" id="facebook" xmlns="http://www.w3.org/2000/svg"><path d="M16.789 27.151h-4.242a.6.6 0 0 1-.6-.601v-9.94H9a.6.6 0 0 1-.6-.6v-4.107a.6.6 0 0 1 .6-.6h2.947v-2.43c0-3.72 2.254-6.028 5.883-6.028 1.52 0 2.846.111 3.25.166a.6.6 0 0 1 .52.596v3.672a.6.6 0 0 1-.6.601h-2.175c-1.296 0-1.437.449-1.437 1.4v2.023h3.467c.172 0 .336.073.451.202a.61.61 0 0 1 .145.474l-.529 4.108a.598.598 0 0 1-.595.522h-2.938v9.939a.6.6 0 0 1-.6.603zm-3.642-1.199h3.042v-9.939a.6.6 0 0 1 .6-.601h3.01l.375-2.909h-3.385a.6.6 0 0 1-.6-.6V9.28c0-1.116.272-2.6 2.636-2.6l1.575-.001V4.147a32.182 32.182 0 0 0-2.57-.104c-2.933 0-4.683 1.806-4.683 4.83v3.028a.6.6 0 0 1-.6.601H9.6v2.909h2.947a.6.6 0 0 1 .6.6v9.941z"/></symbol><symbol viewBox="0 0 30 30" id="forum" xmlns="http://www.w3.org/2000/svg"><path d="M10.37 27.764a.752.752 0 0 1-.75-.75v-3.479H7.225a2.558 2.558 0 0 1-2.555-2.556V6.88a2.559 2.559 0 0 1 2.555-2.556H23.5a2.559 2.559 0 0 1 2.555 2.556v14.099a2.558 2.558 0 0 1-2.555 2.556h-8.248l-4.375 4.032a.755.755 0 0 1-.507.197zM7.225 5.825c-.582 0-1.055.474-1.055 1.056v14.1c0 .582.473 1.055 1.055 1.055h3.145a.75.75 0 0 1 .75.75v2.52l3.332-3.07a.745.745 0 0 1 .508-.199h8.54c.582 0 1.055-.473 1.055-1.055V6.88c0-.582-.473-1.056-1.055-1.056l-16.275.001z"/></symbol><symbol viewBox="0 0 30 29.998" id="instagram" xmlns="http://www.w3.org/2000/svg"><path d="M23.689 27.285H6.314a3.62 3.62 0 0 1-3.603-3.599V6.31a3.617 3.617 0 0 1 3.603-3.599h17.373c1.984 0 3.6 1.614 3.6 3.599v17.377a3.617 3.617 0 0 1-3.598 3.598zM6.314 3.91a2.414 2.414 0 0 0-2.402 2.402v17.373a2.417 2.417 0 0 0 2.404 2.4h17.369a2.415 2.415 0 0 0 2.401-2.402V6.31a2.4 2.4 0 0 0-2.399-2.398L6.314 3.91zm16.804 20.685H6.836a1.527 1.527 0 0 1-1.525-1.525v-9.875a.6.6 0 0 1 .601-.6h2.147a.6.6 0 0 1 .572.774 6.197 6.197 0 0 0-.275 1.83c0 3.551 2.99 6.438 6.666 6.438s6.668-2.889 6.668-6.438a6.24 6.24 0 0 0-.276-1.827.6.6 0 0 1 .573-.776h2.058c.331 0 .601.27.601.6v9.875a1.532 1.532 0 0 1-1.528 1.524zM6.51 13.793v9.276c0 .18.147.324.327.326h16.28a.327.327 0 0 0 .326-.326v-9.273h-.69c.09.463.136.934.136 1.404 0 4.212-3.529 7.638-7.867 7.638-4.336 0-7.864-3.427-7.864-7.64 0-.471.045-.941.135-1.405H6.51zm8.511 6.304c-2.92 0-5.295-2.31-5.295-5.148 0-2.838 2.375-5.146 5.295-5.146s5.295 2.309 5.295 5.146c0 2.838-2.375 5.148-5.295 5.148zm0-9.097c-2.258 0-4.097 1.771-4.097 3.948s1.839 3.949 4.097 3.949 4.097-1.771 4.097-3.949S17.279 11 15.021 11zm7.961.131h-2.641c-.908 0-1.65-.739-1.654-1.651V6.961c0-.912.742-1.653 1.653-1.653h2.642c.912 0 1.652.741 1.652 1.653V9.48a1.65 1.65 0 0 1-1.652 1.651zm-2.64-4.624a.454.454 0 0 0-.453.454v2.517c0 .25.204.455.454.455h2.642c.25 0 .453-.203.453-.453V6.961a.454.454 0 0 0-.453-.454h-2.643z"/></symbol><symbol viewBox="50 0 30 29.998" id="lock" xmlns="http://www.w3.org/2000/svg"><path d="M75.67 12.877a2.797 2.797 0 0 0-1.704-1.322l-.682-.183c.546-2.508.446-4.594-.309-6.203-.762-1.625-2.196-2.76-4.146-3.282-1.918-.515-3.747-.2-5.284.913-1.454 1.053-2.567 2.76-3.318 5.074l-.68-.182c-1.518-.406-3.142.595-3.566 2.176l-2.637 9.842a3.092 3.092 0 0 0 .242 2.253c.376.71.999 1.213 1.757 1.416l14.421 3.864c.232.062.472.093.711.093 1.321 0 2.494-.934 2.854-2.271l2.636-9.84a3.12 3.12 0 0 0-.295-2.348zM64.718 4.421c1.046-.758 2.255-.961 3.594-.602 1.383.37 2.343 1.11 2.854 2.2.558 1.188.62 2.813.189 4.837l-9.193-2.463c.611-1.834 1.485-3.198 2.556-3.972zm9.314 10.284l-2.636 9.841c-.143.531-.655.886-1.117.765l-14.418-3.863a.813.813 0 0 1-.507-.419 1.099 1.099 0 0 1-.079-.8l2.637-9.843c.123-.457.509-.789.919-.789.065 0 .132.009.197.026l14.419 3.863c.26.07.41.25.49.389.138.24.172.542.095.83z"/><path d="M65.512 14.273a2.409 2.409 0 0 0-2.952 1.703 2.402 2.402 0 0 0 .627 2.315l-.448 1.679a1.205 1.205 0 1 0 2.327.625l.449-1.68a2.4 2.4 0 0 0 1.701-1.693 2.41 2.41 0 0 0-1.704-2.949z"/></symbol><symbol viewBox="0 0 30 29.998" id="mail" xmlns="http://www.w3.org/2000/svg"><path d="M27.881 20.382a2.789 2.789 0 0 0 .284-2.125L25.01 6.483a2.775 2.775 0 0 0-1.207-1.611 1.391 1.391 0 0 0-.285-.155c-.574-.278-1.238-.379-1.888-.206L4.215 9.177c-.734.197-1.32.68-1.671 1.299h-.001l-.001.002a2.8 2.8 0 0 0-.269 2.099L5.43 24.349a2.79 2.79 0 0 0 1.297 1.689l.016.014.01.004a2.743 2.743 0 0 0 2.059.268l17.416-4.667a2.732 2.732 0 0 0 1.646-1.262c.002-.002.006-.004.008-.008-.002-.001-.002-.003-.001-.005zm-1.165-1.736c.021.074.074.248.081.322l-.188-.173-8.053-4.61 4.815-7.451.098-.234c.043.083.066.28.092.374l3.155 11.772zM22.02 5.958c.023-.007.176-.096.199-.1l-.189.189-6.588 10.189-10.805-5.534-.215-.032c.021-.008.158-.041.182-.047L22.02 5.958zM3.725 12.187c-.024-.092-.08-.269-.084-.358l.248.18 7.828 4.011-4.74 8.14c-.031-.067-.078-.124-.098-.197L3.725 12.187zm4.698 12.687c-.044.012-.088 0-.132.007l4.764-8.18 2.307 1.183c.013.006.025.004.039.01a.756.756 0 0 0 .303.072.73.73 0 0 0 .367-.102c.039-.021.221-.176.264-.241l1.407-2.179 8.069 4.623.269.088c-.041.016-.197.039-.241.052L8.423 24.874z"/></symbol><symbol viewBox="0 0 30 29.998" id="note" xmlns="http://www.w3.org/2000/svg"><path d="M24.6 4.708a1.633 1.633 0 0 0-1.268-.449l-12.003.777c-.938.061-1.7.873-1.7 1.812v13.713a3.833 3.833 0 0 0-2.053-.588c-.303 0-.608.032-.908.1-.959.213-1.792.742-2.346 1.49-.577.779-.785 1.703-.588 2.598.334 1.51 1.767 2.562 3.48 2.562.303 0 .608-.033.908-.1 1.801-.4 3.033-1.904 2.995-3.51.004-.038.01-.076.01-.11V11.457l12.5-.81V19.5a3.84 3.84 0 0 0-2.022-.567c-.309 0-.619.034-.924.103-2.019.448-3.34 2.258-2.945 4.032.328 1.479 1.748 2.51 3.453 2.51.308 0 .617-.034.924-.102.955-.213 1.787-.733 2.345-1.469.442-.586.67-1.251.669-1.924l.002-.01V5.942c0-.475-.19-.914-.529-1.234zM7.798 25.16c-1.194.264-2.383-.349-2.598-1.324-.104-.464.013-.954.327-1.38.34-.457.859-.783 1.467-.918.191-.043.389-.064.582-.064 1.006 0 1.835.57 2.017 1.387.219.997-.584 2.031-1.795 2.299zm15.464-2.059c-.342.451-.865.774-1.475.91-1.195.266-2.378-.326-2.586-1.268-.215-.969.596-1.977 1.807-2.244a2.76 2.76 0 0 1 .598-.066c.996 0 1.814.549 1.988 1.336.099.444-.019.919-.332 1.332zM11.129 9.955V6.849c0-.154.141-.306.297-.315l12.004-.778c.084.005.117.022.145.048a.184.184 0 0 1 .055.14v3.203l-12.501.808z"/></symbol><symbol viewBox="0 0 30 29.998" id="notice" xmlns="http://www.w3.org/2000/svg"><path d="M11.956 25.491c-.453 0-.884-.165-1.212-.463l-7.506-6.803a1.73 1.73 0 0 1-.571-1.213 1.73 1.73 0 0 1 .457-1.258l3.21-3.496c.624-.681 1.788-.734 2.473-.113l2.956 2.681c.132.118.444.134.586.026l10.833-8.137c.717-.539 1.867-.441 2.483.207l1.621 1.7a1.78 1.78 0 0 1-.037 2.479L13.227 24.974a1.79 1.79 0 0 1-1.271.517zM7.628 13.192a.257.257 0 0 0-.189.08l-3.21 3.496a.242.242 0 0 0-.063.176.24.24 0 0 0 .08.17l7.506 6.803c.203.184.339.072.421-.009l14.022-13.872c.1-.1.103-.275.005-.378l-1.621-1.7c-.112-.119-.366-.139-.496-.042L13.25 16.054c-.705.528-1.841.477-2.495-.115l-2.956-2.681a.251.251 0 0 0-.171-.066z"/></symbol><symbol viewBox="0 0 30 29.998" id="pinterest" xmlns="http://www.w3.org/2000/svg"><path d="M15 27.284c-1.231 0-2.455-.184-3.638-.549a.594.594 0 0 1-.364-.312.577.577 0 0 1-.244.048.73.73 0 0 1-.229-.041c-4.744-1.856-7.81-6.347-7.81-11.437 0-6.772 5.511-12.283 12.284-12.283 6.772 0 12.284 5.513 12.284 12.289.001 6.775-5.51 12.285-12.283 12.285zm-2.543-1.494c.835.195 1.687.295 2.543.295 6.111 0 11.084-4.973 11.084-11.084 0-6.113-4.973-11.09-11.084-11.09-6.112 0-11.084 4.973-11.084 11.084 0 4.262 2.382 8.057 6.146 9.92-.048-.85-.036-1.786.14-2.529.185-.802 1.109-4.707 1.324-5.617a5.09 5.09 0 0 1-.318-1.783c0-1.928 1.191-3.438 2.712-3.438 1.245 0 2.081.9 2.081 2.242 0 .73-.274 1.617-.564 2.555-.15.487-.305.987-.421 1.473-.084.352-.02.685.181.938.217.276.569.435.963.435 1.779 0 3.07-1.998 3.07-4.752 0-2.443-1.758-4.15-4.277-4.15-3.035 0-4.673 2.305-4.673 4.473 0 .918.368 1.844.731 2.282a.95.95 0 0 1 .196.875c-.086.356-.282 1.16-.325 1.324-.117.481-.48.657-.78.657-.139 0-.283-.034-.439-.105-1.769-.824-2.721-3.229-2.721-5.07 0-3.693 2.603-7.668 8.317-7.668 4.447 0 7.8 3.157 7.8 7.348 0 4.484-2.863 7.867-6.662 7.867a4.185 4.185 0 0 1-2.371-.742l-.453 1.729c-.217.836-.699 1.799-1.116 2.531zm1.463-13.044c-.848 0-1.512.983-1.512 2.239 0 .863.283 1.463.286 1.47a.6.6 0 0 1 .045.399c0 .002-1.158 4.894-1.368 5.804-.148.628-.172 1.589-.07 2.735.377-.646.904-1.64 1.111-2.44l.728-2.779a.602.602 0 0 1 .513-.444.611.611 0 0 1 .599.319c.256.49 1.149 1.021 2.145 1.021 3.115 0 5.463-2.866 5.463-6.668 0-3.506-2.838-6.148-6.601-6.148-4.89 0-7.117 3.354-7.117 6.469 0 1.325.636 3.043 1.687 3.785l.191-.783c-.564-.732-.94-1.908-.94-2.965 0-2.748 2.059-5.671 5.873-5.671 3.225 0 5.479 2.2 5.479 5.351 0 3.449-1.797 5.951-4.271 5.951-.765 0-1.459-.324-1.906-.891-.433-.55-.577-1.246-.406-1.961.122-.51.284-1.036.442-1.548.262-.849.51-1.649.51-2.2-.001-.392-.115-1.045-.881-1.045z"/></symbol><symbol viewBox="0 0 235.127 62.086" id="readersfirst-logo" xmlns="http://www.w3.org/2000/svg"><path d="M76.326 27.767L70.74 18.4h-1.765v9.367H61.12V.504h11.258c5.798 0 11.216 1.638 11.216 8.61 0 3.824-1.975 6.386-5.293 7.563l7.52 11.09h-9.494zm-4.62-21.34h-2.73v6.385h2.772c2.184 0 3.738-1.302 3.738-3.36 0-1.974-1.385-3.025-3.78-3.025zm16.378 21.34V.504h19.827v6.05H95.94v4.284h10.585v6.05H95.94v4.83h12.39v6.05H88.085zm38.601-5.167h-7.52l-1.177 5.167h-7.855l7.31-27.263h11.09l7.267 27.263h-7.896l-1.22-5.167zm-6.302-5.587h4.998l-2.56-10.88-2.437 10.88zm25.367 10.754h-8.358V.504h7.812c9.493 0 15.418 3.234 15.418 13.4 0 9.662-6.346 13.863-14.872 13.863zm.04-21.34h-.544v15.417h.545c4.958-.126 6.977-2.395 6.977-7.812 0-5.462-2.103-7.48-6.976-7.605zm17.557 21.34V.504h19.827v6.05H171.2v4.284h10.587v6.05H171.2v4.83h12.394v6.05h-20.247zm39.397 0l-5.586-9.368h-1.767v9.367h-7.853V.504h11.258c5.797 0 11.218 1.638 11.218 8.61 0 3.824-1.976 6.386-5.294 7.563l7.52 11.09h-9.496zm-4.62-21.34h-2.73v6.385h2.772c2.185 0 3.737-1.302 3.737-3.36 0-1.974-1.384-3.025-3.78-3.025zm25.113 21.843c-3.485 0-6.932-.713-10.166-2.015l2.06-6.637c2.647 1.47 5.967 2.646 8.235 2.646 2.436 0 3.862-.924 3.862-2.52 0-4.412-13.567-.715-13.567-10.923 0-6.132 5-8.82 11.764-8.82 2.897 0 5.923.755 8.736 1.974l-2.353 5.923c-2.143-1.218-4.748-1.974-6.805-1.974-2.27 0-3.656.672-3.656 2.058 0 3.992 13.78.505 13.78 11.007 0 6.092-5.46 9.284-11.89 9.284zM69.443 40.37v4.956h11.174v6.05H69.443v10.207h-7.855V34.32h20.415v6.05h-12.56zm16.63 21.213V34.32h7.855v27.263h-7.855zm27.093 0l-5.587-9.368h-1.766v9.368H97.96V34.32h11.257c5.798 0 11.218 1.638 11.218 8.61 0 3.823-1.976 6.386-5.293 7.563l7.52 11.09h-9.496zm-4.62-21.34h-2.73v6.385h2.772c2.184 0 3.738-1.302 3.738-3.36 0-1.975-1.387-3.025-3.78-3.025zm25.114 21.843c-3.486 0-6.933-.714-10.166-2.016l2.06-6.637c2.646 1.47 5.965 2.646 8.232 2.646 2.438 0 3.863-.926 3.863-2.522 0-4.412-13.568-.715-13.568-10.923 0-6.133 5-8.82 11.762-8.82 2.898 0 5.925.755 8.738 1.974l-2.353 5.922c-2.145-1.218-4.75-1.974-6.808-1.974-2.268 0-3.654.672-3.654 2.058 0 3.99 13.78.504 13.78 11.006 0 6.093-5.46 9.284-11.888 9.284zm29.275-21.759v21.256h-7.854V40.327h-7.435V34.32h22.726v6.007h-7.435zM11.32 51.708l-5.66-5.573 1.75-1.775 4.245 4.184.546-.346C32.787 35.268 42.276 4.443 42.37 4.133l2.387.72c-.392 1.3-9.844 32.023-31.224 45.452l-2.214 1.403z" fill="#E74F4D"/><path fill="#E74F4D" d="M42.39 59.432l-7.88-.983-.27-2.613c-2.715-24.963 9.198-51.94 9.318-52.21l2.275 1.02c-.118.263-11.757 26.64-9.116 50.926l.067.648 5.912.738-.307 2.474z"/><path fill="#E74F4D" d="M49.812 61.736l-7.79-.002.018-53.627L5.775 48.18 0 42.952 38.28.652l.956-.324c.616-.21 2.868-.785 5.946.622 3.072 1.412 4.112 3.488 4.357 4.09l.287.708-.015 55.988z"/></symbol><symbol viewBox="0 0 235.127 62.086" id="readersfirst-logo-white" xmlns="http://www.w3.org/2000/svg"><path d="M76.326 27.767L70.74 18.4h-1.765v9.367H61.12V.504h11.258c5.798 0 11.216 1.638 11.216 8.61 0 3.824-1.975 6.386-5.293 7.563l7.52 11.09h-9.494zm-4.62-21.34h-2.73v6.385h2.772c2.184 0 3.738-1.302 3.738-3.36 0-1.974-1.385-3.025-3.78-3.025zm16.378 21.34V.504h19.827v6.05H95.94v4.284h10.585v6.05H95.94v4.83h12.39v6.05H88.085zm38.601-5.167h-7.52l-1.177 5.167h-7.855l7.31-27.263h11.09l7.267 27.263h-7.896l-1.22-5.167zm-6.302-5.587h4.998l-2.56-10.88-2.437 10.88zm25.367 10.754h-8.358V.504h7.812c9.493 0 15.418 3.234 15.418 13.4 0 9.662-6.346 13.863-14.872 13.863zm.04-21.34h-.544v15.417h.545c4.958-.126 6.977-2.395 6.977-7.812 0-5.462-2.103-7.48-6.976-7.605zm17.557 21.34V.504h19.827v6.05H171.2v4.284h10.587v6.05H171.2v4.83h12.394v6.05h-20.247zm39.397 0l-5.586-9.368h-1.767v9.367h-7.853V.504h11.258c5.797 0 11.218 1.638 11.218 8.61 0 3.824-1.976 6.386-5.294 7.563l7.52 11.09h-9.496zm-4.62-21.34h-2.73v6.385h2.772c2.185 0 3.737-1.302 3.737-3.36 0-1.974-1.384-3.025-3.78-3.025zm25.113 21.843c-3.485 0-6.932-.713-10.166-2.015l2.06-6.637c2.647 1.47 5.967 2.646 8.235 2.646 2.436 0 3.862-.924 3.862-2.52 0-4.412-13.567-.715-13.567-10.923 0-6.132 5-8.82 11.764-8.82 2.897 0 5.923.755 8.736 1.974l-2.353 5.923c-2.143-1.218-4.748-1.974-6.805-1.974-2.27 0-3.656.672-3.656 2.058 0 3.992 13.78.505 13.78 11.007 0 6.092-5.46 9.284-11.89 9.284zM69.443 40.37v4.956h11.174v6.05H69.443v10.207h-7.855V34.32h20.415v6.05h-12.56zm16.63 21.213V34.32h7.855v27.263h-7.855zm27.093 0l-5.587-9.368h-1.766v9.368H97.96V34.32h11.257c5.798 0 11.218 1.638 11.218 8.61 0 3.823-1.976 6.386-5.293 7.563l7.52 11.09h-9.496zm-4.62-21.34h-2.73v6.385h2.772c2.184 0 3.738-1.302 3.738-3.36 0-1.975-1.387-3.025-3.78-3.025zm25.114 21.843c-3.486 0-6.933-.714-10.166-2.016l2.06-6.637c2.646 1.47 5.965 2.646 8.232 2.646 2.438 0 3.863-.926 3.863-2.522 0-4.412-13.568-.715-13.568-10.923 0-6.133 5-8.82 11.762-8.82 2.898 0 5.925.755 8.738 1.974l-2.353 5.922c-2.145-1.218-4.75-1.974-6.808-1.974-2.268 0-3.654.672-3.654 2.058 0 3.99 13.78.504 13.78 11.006 0 6.093-5.46 9.284-11.888 9.284zm29.275-21.759v21.256h-7.854V40.327h-7.435V34.32h22.726v6.007h-7.435zM11.32 51.708l-5.66-5.573 1.75-1.775 4.245 4.184.546-.346C32.787 35.268 42.276 4.443 42.37 4.133l2.387.72c-.392 1.3-9.844 32.023-31.224 45.452l-2.214 1.403z" fill="#FFF"/><path fill="#FFF" d="M42.39 59.432l-7.88-.983-.27-2.613c-2.715-24.963 9.198-51.94 9.318-52.21l2.275 1.02c-.118.263-11.757 26.64-9.116 50.926l.067.648 5.912.738-.307 2.474z"/><path fill="#FFF" d="M49.812 61.736l-7.79-.002.018-53.627L5.775 48.18 0 42.952 38.28.652l.956-.324c.616-.21 2.868-.785 5.946.622 3.072 1.412 4.112 3.488 4.357 4.09l.287.708-.015 55.988z"/></symbol><symbol viewBox="0 0 30 29.998" id="review" xmlns="http://www.w3.org/2000/svg"><path d="M26.312 5.201L13.029 1.64c-1.48-.396-3 .354-3.629 1.697a.74.74 0 0 0-.125.253L4.496 21.429c-.016.059-.01.115-.012.174a3.1 3.1 0 0 0 .369 2.021c.383.662.986 1.14 1.705 1.383.031.013.057.036.09.045l13.385 3.587a.72.72 0 0 0 .193.025l.008.001a.758.758 0 0 0 .738-.546c.107-.4-.107-.803-.508-.909-.119-.104-.303-.743-.045-1.698.256-.957.732-1.419.842-1.453.016.004.055-.02.082-.031.043.008.082.022.125.022a.749.749 0 0 0 .709-.521l.002-.002L26.844 6.12a.75.75 0 0 0-.532-.919zm-7.339 19.92a4.85 4.85 0 0 0-.164 1.635l-11.67-3.127v-.001a1.625 1.625 0 0 1-1.146-1.984 1.61 1.61 0 0 1 .756-.984 1.605 1.605 0 0 1 1.229-.161c.014.004.025 0 .039.003.012.004.02.014.033.018l11.6 3.107a4.683 4.683 0 0 0-.677 1.494zm1.953-2.708L8.438 19.067c-.012-.004-.025 0-.037-.002-.014-.006-.021-.015-.035-.019a3.104 3.104 0 0 0-1.686.026l3.977-14.836v-.001a1.622 1.622 0 0 1 1.984-1.146l12.561 3.366-4.276 15.958zM10.338 9.011a.756.756 0 0 0-.016.791l1.836 3.086-1.5 3.262a.745.745 0 0 0 .1.785c.18.223.465.326.748.26l3.502-.793 2.641 2.435a.747.747 0 0 0 .779.147.751.751 0 0 0 .477-.631l.326-3.574 3.131-1.76a.753.753 0 0 0 .383-.693.752.752 0 0 0-.453-.649l-3.299-1.416-.705-3.521a.748.748 0 0 0-1.299-.348l-2.367 2.7-3.564-.418a.758.758 0 0 0-.72.337zm4.5 1.616a.77.77 0 0 0 .65-.251l1.625-1.854.482 2.418a.755.755 0 0 0 .439.543l2.266.972-2.15 1.208a.754.754 0 0 0-.379.586l-.225 2.454-1.812-1.673a.752.752 0 0 0-.676-.177l-2.402.543 1.029-2.237a.757.757 0 0 0-.037-.697l-1.262-2.119 2.452.284z"/></symbol><symbol viewBox="0 0 30 29.998" id="review-today" xmlns="http://www.w3.org/2000/svg"><path d="M25 5.005h-3.25V3.999a.75.75 0 0 0-1.5 0v1.006H9.75V3.999a.75.75 0 0 0-1.5 0v1.006H5c-.965 0-1.75.785-1.75 1.75v17.523c0 .965.785 1.75 1.75 1.75h20c.965 0 1.75-.785 1.75-1.75V6.755c0-.965-.785-1.75-1.75-1.75zM4.75 6.755c0-.136.113-.25.25-.25h3.25v.773a.75.75 0 0 0 1.5 0v-.773h10.5v.773a.75.75 0 0 0 1.5 0v-.773H25c.137 0 .25.114.25.25v2.523c0 .136-.113.25-.25.25H5a.252.252 0 0 1-.25-.25V6.755zM25 24.528H5a.252.252 0 0 1-.25-.25V11.003c.082.012.164.025.25.025h20c.086 0 .168-.014.25-.025v13.275c0 .136-.113.25-.25.25zm-13.395-1.043a.747.747 0 0 1-.738-.875l.58-3.396-2.469-2.401c-.203-.199-.277-.498-.189-.771s.322-.471.605-.511l3.406-.499 1.522-3.09a.75.75 0 1 1 1.345 0l1.524 3.088 3.41.491a.75.75 0 1 1 .416 1.281l-2.465 2.406.586 3.394a.745.745 0 0 1-.299.733.758.758 0 0 1-.789.06L15 21.794l-3.048 1.604a.699.699 0 0 1-.347.087zm-.492-6.687l1.662 1.619c.178.172.259.42.217.663l-.391 2.284 2.051-1.079a.751.751 0 0 1 .699 0l2.053 1.075-.396-2.282a.748.748 0 0 1 .216-.664l1.659-1.621-2.295-.332a.744.744 0 0 1-.563-.41l-1.027-2.077-1.023 2.078a.75.75 0 0 1-.564.41l-2.298.336z"/></symbol><symbol viewBox="0 0 30 29.998" id="star" xmlns="http://www.w3.org/2000/svg"><path d="M11.221 27.358c-.515 0-1.068-.373-1.146-1.207l-.569-6.119c-.027-.305-.316-.75-.584-.899l-5.365-3.005c-.488-.271-.754-.693-.729-1.154.022-.459.331-.852.844-1.072l5.646-2.432c.281-.121.615-.535.675-.834l1.198-6.035c.158-.802.719-1.086 1.149-1.086.254 0 .636.088 1.004.508l4.062 4.623c.182.205.613.388.927.388l6.181-.729c.61-.068 1.064.143 1.301.559.217.377.186.855-.084 1.311l-3.14 5.29c-.155.263-.183.794-.055 1.072l2.575 5.579c.289.627.111 1.062-.02 1.269-.268.419-.795.599-1.383.468l-6-1.351c-.301-.067-.85.106-1.036.278l-4.514 4.175c-.365.333-.713.403-.937.403zM4.744 15.071l4.908 2.753c.693.389 1.272 1.278 1.347 2.069l.521 5.6 4.135-3.818c.572-.527 1.621-.812 2.384-.64l5.487 1.233-2.354-5.107c-.333-.723-.277-1.781.126-2.465l2.872-4.84-5.588.66c-.777.094-1.787-.293-2.307-.883L12.56 5.404l-1.101 5.521c-.153.777-.819 1.604-1.551 1.918l-5.164 2.228z"/></symbol><symbol viewBox="0 0 30 30" id="star-level" xmlns="http://www.w3.org/2000/svg"><path d="M8.576 27c-.336 0-.637-.137-.845-.384-.167-.198-.347-.553-.251-1.116l1.028-6.06c.051-.302-.114-.808-.334-1.022l-4.408-4.284c-.4-.39-.548-.865-.406-1.304.142-.439.541-.737 1.092-.819l6.083-.894c.302-.044.731-.357.866-.631l2.714-5.521c.492-1 1.735-1.004 2.229-.003l2.731 5.513c.136.274.566.585.869.629l6.085.874c.554.079.953.376 1.097.815.143.439-.004.914-.403 1.305l-4.395 4.301c-.219.214-.382.719-.329 1.02l1.049 6.059c.098.563-.081.918-.249 1.117-.351.417-.964.504-1.552.197l-5.45-2.853c-.253-.132-.821-.132-1.074.002l-5.438 2.868c-.24.127-.479.191-.709.191zM5.187 13.42l4.033 3.924c.57.557.898 1.565.766 2.348l-.94 5.544 4.978-2.622c.685-.361 1.788-.361 2.469-.003l4.984 2.608-.957-5.545c-.136-.783.19-1.792.759-2.348L25.3 13.39l-5.568-.803c-.787-.113-1.647-.735-2-1.447l-2.499-5.043-2.486 5.05c-.35.713-1.207 1.338-1.994 1.454l-5.566.819z"/></symbol><symbol viewBox="0 0 30 30" id="star-level-half" xmlns="http://www.w3.org/2000/svg"><path fill="#DCDCDC" stroke="#DCDCDC" d="M26.723 13.194c.399-.39.546-.866.403-1.305-.144-.439-.543-.736-1.097-.815l-6.085-.874c-.303-.043-.733-.355-.869-.629l-2.731-5.513c-.244-.495-.672-.742-1.101-.747v1.903l2.489 5.022c.353.712 1.213 1.334 2 1.447l5.568.803-4.021 3.935c-.568.556-.895 1.564-.759 2.348l.957 5.545-4.984-2.608c-.345-.182-.798-.27-1.25-.267v1.497c.211-.002.424.03.554.098l5.45 2.853c.588.307 1.201.22 1.552-.197.168-.199.347-.554.249-1.117l-1.049-6.059c-.053-.301.11-.806.329-1.02l4.395-4.3z"/><path d="M14.024 21.71l-4.978 2.622.94-5.544c.133-.782-.196-1.791-.766-2.348l-4.033-3.924 5.565-.817c.787-.116 1.644-.741 1.994-1.454l2.486-5.05.01.021V3.312c-.439-.005-.88.244-1.128.75L11.4 9.583c-.134.274-.563.587-.866.631l-6.083.894c-.552.082-.95.38-1.092.819-.142.438.006.914.406 1.304l4.408 4.284c.22.215.385.721.334 1.022l-1.028 6.06c-.096.563.083.918.251 1.116.208.247.509.384.845.384.23 0 .469-.064.71-.191l5.438-2.868c.123-.065.32-.097.52-.1V21.44c-.441.003-.881.091-1.219.27z"/></symbol><symbol viewBox="0 0 30 29.998" id="twitter" xmlns="http://www.w3.org/2000/svg"><path d="M11.312 25.668a14.03 14.03 0 0 1-7.577-2.22.598.598 0 0 1-.241-.706.594.594 0 0 1 .634-.396c1.826.211 3.738-.145 5.35-1.031a5.327 5.327 0 0 1-3.406-3.436.598.598 0 0 1 .329-.73 5.342 5.342 0 0 1-2.016-4.172c0-.213.112-.438.295-.547a.62.62 0 0 1 .531-.068 5.326 5.326 0 0 1-.788-2.793c0-.943.25-1.87.723-2.68.1-.17.275-.281.472-.297a.602.602 0 0 1 .512.221 12.877 12.877 0 0 0 8.58 4.664 5.339 5.339 0 0 1 5.316-5.752c1.353 0 2.662.521 3.646 1.438a8.827 8.827 0 0 0 2.505-1.009.6.6 0 0 1 .879.697 5.24 5.24 0 0 1-.643 1.332 8.84 8.84 0 0 0 .464-.189.601.601 0 0 1 .742.882 10.188 10.188 0 0 1-2.25 2.409c.002.105.004.213.004.318.001 6.916-5.26 14.065-14.061 14.065zm-5.98-2.312c2.004.601 4.316 1.111 5.981 1.111 8.05 0 12.861-6.539 12.861-12.861 0-.196-.004-.394-.013-.586a.6.6 0 0 1 .248-.514c.323-.234 1.756-1.268 2.044-1.54-.641.267-1.698.778-1.984.812-.283.035-.541-.028-.633-.297-.091-.268.125-.354.368-.5.349-.209 1.358-1.108 1.922-1.812-1 .625-2.042 1.144-2.528 1.238a.601.601 0 0 1-.554-.179 4.15 4.15 0 0 0-3.017-1.306 4.138 4.138 0 0 0-4.026 5.074.603.603 0 0 1-.124.521.611.611 0 0 1-.491.215 14.076 14.076 0 0 1-9.56-4.445 4.131 4.131 0 0 0 1.636 4.719.6.6 0 0 1 .238.683c-.082.256-.313.394-.591.416-.481-.016-1.188-.25-1.704-.547.358 1.586 1.883 3.144 3.493 3.467a.599.599 0 0 1 .481.567.604.604 0 0 1-.441.601c-.434.117-1.033.101-1.611-.071.722 1.2 2.302 2.231 3.748 2.26a.6.6 0 0 1 .359 1.071c-1.452 1.142-3.538 2.028-6.102 1.903z"/></symbol><symbol viewBox="-19.147 1.09 235.13 62.09" id="vorablesen-logo" xmlns="http://www.w3.org/2000/svg"><path d="M62.036 29.038h-9.074L44.52 1.775h8.106l5.083 18.273 4.83-18.273h8.023l-8.527 27.263zm9.467-13.652c0-8.15 4.37-14.115 12.56-14.115 8.15 0 12.562 5.966 12.562 14.116 0 8.317-4.58 14.156-12.562 14.156-8.36 0-12.56-5.88-12.56-14.156zm17.056 0c0-4.243-1.346-8.065-4.495-8.065-3.192 0-4.538 3.824-4.538 8.066 0 4.285 1.344 8.065 4.538 8.065 3.15 0 4.494-3.78 4.494-8.064zm27.301 13.652l-5.59-9.368h-1.765v9.368h-7.854V1.775h11.26c5.796 0 11.216 1.64 11.216 8.61 0 3.824-1.975 6.386-5.293 7.563l7.52 11.09h-9.494zm-4.622-21.34h-2.73v6.385h2.77c2.187 0 3.74-1.302 3.74-3.36 0-1.974-1.385-3.025-3.78-3.025zM143.79 23.87h-7.52l-1.175 5.168h-7.855l7.31-27.265h11.09l7.27 27.265h-7.895l-1.224-5.167zm-6.298-5.586h4.998l-2.562-10.882-2.436 10.882zm30.778 10.754h-12.097V1.775h12.352c4.955 0 9.24 1.64 9.24 7.143 0 2.98-1.934 5-4.285 5.63v.167c2.438.756 5.21 2.06 5.21 6.05 0 5.585-4.915 8.273-10.42 8.273zm-1.72-21.466h-2.52v4.79h2.438c2.268 0 3.402-.757 3.402-2.563 0-1.597-1.01-2.228-3.32-2.228zm.59 10.166h-3.11v5.547h2.814c2.48 0 3.78-.8 3.78-2.814 0-1.85-1.09-2.732-3.485-2.732zM48.803 62.854V35.59h7.855v21.214h11.3v6.05H48.803zm23.017 0V35.59h19.827v6.05H79.674v4.285H90.26v6.05H79.674v4.83h12.393v6.05H71.82zm33.98.504c-3.49 0-6.933-.714-10.168-2.016l2.06-6.637c2.646 1.47 5.966 2.646 8.232 2.646 2.438 0 3.865-.923 3.865-2.52 0-4.41-13.57-.714-13.57-10.922 0-6.135 5-8.822 11.762-8.822 2.898 0 5.926.756 8.738 1.975l-2.352 5.924c-2.145-1.218-4.748-1.974-6.807-1.974-2.27 0-3.653.672-3.653 2.058 0 3.99 13.78.504 13.78 11.008 0 6.09-5.462 9.282-11.888 9.282zm16.335-.504V35.59h19.828v6.05h-11.97v4.285h10.585v6.05h-10.586v4.83h12.39v6.05h-20.247zm41.415 0l-8.99-14.577v14.577h-7.183V35.59h6.848l8.947 14.788V35.59h7.184v27.264h-6.807zM24.717 60.45c-.533-1.27-12.99-31.354-7.31-56.217l.577-2.577 8.03-.062.02 2.492-6.05.047-.147.65c-5.5 24.075 7.05 54.397 7.178 54.7l-2.298.968z" fill="#E74F4D"/><path fill="#E74F4D" d="M24.11 61.368c-.088-.317-9.048-31.89-28.29-47.356l-.523-.424-4.774 3.714-1.53-1.967 6.337-4.932 2.056 1.667C17.256 28.047 26.143 59.375 26.51 60.7l-2.4.668z"/><path fill="#E74F4D" d="M23.788 64.27c-1.323 0-2.224-.312-2.576-.46l-.843-.354-38.517-44.715 5.9-5.082 36.75 42.66c.004-.002.01-.003.012-.005V0h7.79v59.014l-.402.813c-.29.588-1.482 2.6-4.677 3.79-1.33.493-2.493.653-3.438.653z"/></symbol><symbol viewBox="0 0 196.837 64.27" id="vorablesen-logo-white" xmlns="http://www.w3.org/2000/svg"><path d="M80.183 29.038H71.11L62.665 1.775h8.107l5.083 18.273 4.83-18.273h8.024l-8.527 27.263zm9.467-13.652c0-8.15 4.37-14.115 12.56-14.115 8.15 0 12.56 5.966 12.56 14.116 0 8.317-4.58 14.156-12.56 14.156-8.36 0-12.56-5.88-12.56-14.156zm17.056 0c0-4.243-1.344-8.065-4.495-8.065-3.19 0-4.536 3.824-4.536 8.066 0 4.285 1.344 8.065 4.537 8.065 3.15 0 4.496-3.78 4.496-8.064zm27.3 13.652l-5.587-9.368h-1.766v9.368H118.8V1.775h11.257c5.797 0 11.216 1.638 11.216 8.61 0 3.824-1.974 6.386-5.293 7.563l7.52 11.09h-9.494zm-4.62-21.34h-2.73v6.385h2.77c2.186 0 3.74-1.302 3.74-3.36 0-1.974-1.387-3.025-3.78-3.025zm32.552 16.172h-7.52l-1.176 5.168h-7.855l7.31-27.263h11.09l7.268 27.263h-7.897l-1.22-5.167zm-6.3-5.586h5l-2.563-10.88-2.437 10.88zm30.782 10.754h-12.1V1.775h12.352c4.956 0 9.24 1.638 9.24 7.14 0 2.983-1.932 5-4.284 5.63v.168c2.437.756 5.21 2.06 5.21 6.05 0 5.587-4.915 8.275-10.42 8.275zm-1.723-21.466h-2.52v4.79h2.436c2.27 0 3.402-.757 3.402-2.563 0-1.597-1.007-2.228-3.318-2.228zm.588 10.166h-3.108v5.545h2.814c2.48 0 3.78-.798 3.78-2.814 0-1.85-1.09-2.732-3.485-2.732zM66.95 62.854V35.59h7.855v21.214h11.3v6.05H66.95zm23.016 0V35.59h19.828v6.05H97.82v4.285h10.587v6.05H97.82v4.83h12.393v6.05H89.966zm33.979.504c-3.487 0-6.93-.714-10.166-2.016l2.058-6.637c2.646 1.47 5.965 2.646 8.233 2.646 2.438 0 3.866-.923 3.866-2.52 0-4.41-13.568-.714-13.568-10.922 0-6.133 5-8.822 11.762-8.822 2.898 0 5.923.756 8.738 1.975l-2.353 5.924c-2.143-1.218-4.747-1.974-6.805-1.974-2.27 0-3.655.672-3.655 2.058 0 3.99 13.78.504 13.78 11.006-.002 6.092-5.463 9.284-11.89 9.284zm16.337-.504V35.59h19.828v6.05h-11.972v4.285h10.586v6.05h-10.586v4.83h12.392v6.05h-20.248zm41.414 0l-8.99-14.577v14.577h-7.183V35.59h6.848l8.948 14.788V35.59h7.184v27.264h-6.806zM42.864 60.45c-.533-1.268-12.99-31.354-7.31-56.215l.577-2.58 8.032-.06.02 2.492-6.052.046-.146.65c-5.5 24.077 7.05 54.398 7.178 54.702l-2.298.966z" fill="#FFF"/><path fill="#FFF" d="M42.257 61.368c-.088-.317-9.048-31.887-28.29-47.356l-.523-.424-4.774 3.714-1.53-1.967 6.337-4.93 2.056 1.667C35.403 28.047 44.29 59.375 44.658 60.7l-2.4.668z"/><path fill="#FFF" d="M41.935 64.27c-1.323 0-2.224-.312-2.576-.46l-.844-.354L0 18.74l5.9-5.082 36.75 42.66c.004 0 .01 0 .012-.003V0h7.79v59.014l-.402.813c-.29.588-1.482 2.6-4.677 3.79-1.33.493-2.493.653-3.438.653z"/></symbol><symbol viewBox="0 0 30 29.998" id="website" xmlns="http://www.w3.org/2000/svg"><path d="M11.825 3.147C5.29 4.899 1.398 11.64 3.149 18.174c1.751 6.533 8.491 10.427 15.026 8.675 6.534-1.75 10.427-8.49 8.675-15.025C25.1 5.29 18.359 1.397 11.825 3.147zm5.962 22.252c-1.289.346-3.235-1.359-4.854-4.498a72.93 72.93 0 0 0 3.04-.744 68.592 68.592 0 0 0 3.764-1.141c.18 3.559-.654 6.038-1.95 6.383zm-5.504-5.886a25.683 25.683 0 0 1-1.194-3.466 26.18 26.18 0 0 1-.665-3.298 95.217 95.217 0 0 1 7.375-2.078c.415.994.793 2.092 1.112 3.28.334 1.245.557 2.435.692 3.546a69.085 69.085 0 0 1-7.32 2.016zm-7.685-1.727a10.662 10.662 0 0 1-.355-2.775c.47-.199 2.185-.906 4.735-1.779.151 1.029.366 2.103.662 3.203.324 1.211.71 2.344 1.139 3.392a63.19 63.19 0 0 1-4.962.786 10.715 10.715 0 0 1-1.219-2.827zm7.614-13.189c1.314-.352 3.31 1.432 4.944 4.687a96.29 96.29 0 0 0-6.879 1.938c-.229-3.688.61-6.27 1.935-6.625zm7.069 5.734a77.961 77.961 0 0 1 4.898-.916c.006 0 .01-.005.018-.006.52.854.933 1.789 1.203 2.803.25.932.356 1.865.356 2.787a50.954 50.954 0 0 1-4.702 1.986 28.044 28.044 0 0 0-.695-3.422 28.07 28.07 0 0 0-1.078-3.232zm3.929-2.279c-1.56.254-3.078.553-4.539.879-.985-2.062-2.537-3.859-3.747-4.871 3.071.089 6.326 1.683 8.286 3.992zM9.598 5.485c-.552 1.51-.995 3.889-.802 6.223a85.812 85.812 0 0 0-4.429 1.63c.487-3.081 2.545-6.194 5.231-7.853zM6.833 21.998c1.035-.138 2.63-.38 4.574-.772.971 1.984 2.559 3.726 3.735 4.709-3.045-.09-6.35-1.659-8.309-3.937zm13.468 2.556c.533-1.459 1.08-3.797.918-6.033a54.632 54.632 0 0 0 4.404-1.819c-.495 3.063-2.646 6.199-5.322 7.852z"/></symbol></svg>